<?xml version="1.0" encoding="UTF-8" standalone="no"?><svg width="913.248" height="1200" xmlns="http://www.w3.org/2000/svg" stroke-linejoin="round" stroke-linecap="round" fill-rule="evenodd" fill="none"><rect x="0" y="0" width="913.248" height="1200" fill="#97A077"/><style><![CDATA[@import url("https://fonts.googleapis.com/css2?family=IM+Fell+Great+Primer&display=swap");]]></style><defs/><g><path d=" M 0,0"/><g transform="translate(467.543 663.984) scale(7.732 7.732)"><path d=" M 0,0"/><g><path d=" M 0,0"/><g><path d=" M 0,0"/><g><path d=" M 0,0"/><path d=" M -12.981,-26.83 L -27.414,-52.651 L -28.374,-54.406 L -32.914,-62.885 L -35.488,-67.702 L -37.293,-71.096 L -38.887,-74.108 L -40.27,-76.736 L -41.627,-79.328 L -42.959,-81.883 L -44.265,-84.402 L -45.545,-86.885 L -46.784,-89.369 L -47.98,-91.854 L -49.135,-94.34 L -50.247,-96.827 L -51.318,-99.316 L -52.347,-101.805 L -53.333,-104.296 L -54.278,-106.788 L -55.145,-109.287 L -55.935,-111.793 L -56.648,-114.307 L -57.283,-116.828 L -57.841,-119.356 L -58.321,-121.891 L -58.724,-124.434 L -59.05,-126.984 L -59.481,-129.433 L -60.017,-131.782 L -60.659,-134.031 L -61.405,-136.179 L -62.402,-138.445 L -63.651,-140.828 L -65.588,-143.984 L -69.526,-149.877" stroke="#4C5950" stroke-width="2.138" stroke-linejoin="round" stroke-linecap="butt"/></g><g><path d=" M 0,0"/></g></g><g><path d=" M 0,0"/><g><path d=" M 0,0"/><path d=" M 2.69,6.668 L 4.913,-3.14 L 4.691,-5.012 L 0.897,-12.702 L -0.276,-14.282 L -6.703,-20.291 L -8.121,-21.7 L -12.293,-26.104 L -13.469,-27.703 L -27.414,-52.651 L -28.374,-54.406 L -32.914,-62.885 L -35.488,-67.702 L -37.293,-71.096 L -38.887,-74.108 L -40.27,-76.736 L -41.627,-79.328 L -42.959,-81.883 L -44.265,-84.402 L -45.545,-86.885 L -46.784,-89.369 L -47.98,-91.854 L -49.135,-94.34 L -50.247,-96.827 L -51.318,-99.316 L -52.347,-101.805 L -53.333,-104.296 L -54.278,-106.788 L -55.145,-109.287 L -55.935,-111.793 L -56.648,-114.307 L -57.283,-116.828 L -57.841,-119.356 L -58.321,-121.891 L -58.724,-124.434 L -59.05,-126.984 L -59.481,-129.433 L -60.017,-131.782 L -60.659,-134.031 L -61.405,-136.179 L -62.402,-138.445 L -63.651,-140.828 L -65.588,-143.984 L -69.526,-149.877" stroke="#FFF2C8" stroke-width="2"/></g></g></g><g><path d=" M 0,0"/></g><g><path d=" M 0,0"/><path d=" M -16.364,0.812 L 2.69,6.668 L 5.426,21.459 L -17.546,21.392 L -16.364,0.812" fill="#FFF2C8"/><path d=" M -7.4,17.182 L -13.378,16.839 L -12.928,9 L -4.125,9.506 L -4.27,12.024 L -0.859,12.22 L -0.992,14.53 L -7.228,14.172 L -7.4,17.182" fill="#606661" stroke="#4C5950" stroke-width="0.069" stroke-linejoin="miter" stroke-linecap="round"/></g><g><path d=" M 0,0"/><path d=" M -0.561,-13.78 L -0.561,-13.18 L -2.228,-11.397 L -9.291,-16.702 L -9.291,-17.302 L -2.228,-11.997 L -0.561,-13.78" fill="#606661" stroke="#4C5950" stroke-width="0.069"/><path d=" M -2.228,-11.397 L -2.228,-11.997" stroke="#4C5950" stroke-width="0.069"/><path d=" M -5.367,-14.355 L -5.367,-13.755 L -8.142,-9.06 L -12.011,-10.79 L -12.011,-11.39 L -8.142,-9.66 L -5.367,-14.355" fill="#606661" stroke="#4C5950" stroke-width="0.069"/><path d=" M -8.142,-9.06 L -8.142,-9.66" stroke="#4C5950" stroke-width="0.069"/><path d=" M -6.664,-4.282 L -6.664,-3.682 L -7.949,0.498 L -12.372,-0.861 L -13.503,-2.6 L -14.631,-2.943 L -14.631,-3.543 L -13.503,-3.2 L -12.372,-1.461 L -7.949,-0.102 L -6.664,-4.282" fill="#606661" stroke="#4C5950" stroke-width="0.069"/><path d=" M -7.949,0.498 L -7.949,-0.102 M -12.372,-0.861 L -12.372,-1.461 M -13.503,-2.6 L -13.503,-3.2" stroke="#4C5950" stroke-width="0.069"/><path d=" M -8.523,-7.844 L -8.523,-7.244 L -9.493,-4.324 L -13.757,-5.292 L -13.757,-5.892 L -9.493,-4.924 L -8.523,-7.844" fill="#606661" stroke="#4C5950" stroke-width="0.069"/><path d=" M -9.493,-4.324 L -9.493,-4.924" stroke="#4C5950" stroke-width="0.069"/><path d=" M -7.948,-9.573 L -7.948,-8.973 L -8.523,-7.244 L -13.014,-9.296 L -13.014,-9.896 L -8.523,-7.844 L -7.948,-9.573" fill="#606661" stroke="#4C5950" stroke-width="0.069"/><path d=" M -8.523,-7.244 L -8.523,-7.844" stroke="#4C5950" stroke-width="0.069"/><path d=" M 4.08,-4.591 L 4.08,-3.991 L 4.051,-3.861 L -5.689,-6.854 L -5.689,-7.454 L 4.051,-4.461 L 4.08,-4.591" fill="#606661" stroke="#4C5950" stroke-width="0.069"/><path d=" M 4.051,-3.861 L 4.051,-4.461" stroke="#4C5950" stroke-width="0.069"/><path d=" M -2.534,-0.634 L -2.534,-0.034 L -3.143,1.949 L -7.941,0.474 L -7.941,-0.126 L -3.143,1.349 L -2.534,-0.634" fill="#606661" stroke="#4C5950" stroke-width="0.069"/><path d=" M -3.143,1.949 L -3.143,1.349" stroke="#4C5950" stroke-width="0.069"/><path d=" M 4.051,-4.461 L 4.051,-3.861 L 2.943,1.029 L 0.621,1.036 L -1.764,3.05 L -3.333,2.568 L -3.333,1.968 L -1.764,2.45 L 0.621,0.436 L 2.943,0.429 L 4.051,-4.461" fill="#606661" stroke="#4C5950" stroke-width="0.069"/><path d=" M 2.943,1.029 L 2.943,0.429 M 0.621,1.036 L 0.621,0.436 M -1.764,3.05 L -1.764,2.45" stroke="#4C5950" stroke-width="0.069"/><path d=" M -9.291,-17.302 L -7.511,-20.277 L -0.561,-13.78 L -2.228,-11.997 L -9.291,-17.302" fill="#D6A36E" stroke="#4C5950" stroke-width="0.069"/><path d=" M -0.564,-13.768 L -2.372,-14.131 M -2.226,-12.008 L -2.372,-14.131 M -7.543,-20.222 L -7.186,-18.249 M -9.297,-17.303 L -7.186,-18.249 M -2.372,-14.131 L -7.186,-18.249" stroke="#4C5950" stroke-width="0.069"/><path d=" M -12.011,-11.39 L -8.727,-16.878 L -5.367,-14.355 L -8.142,-9.66 L -12.011,-11.39" fill="#D6A36E" stroke="#4C5950" stroke-width="0.069"/><path d=" M -8.146,-9.679 L -8.997,-13.063 M -12.039,-11.386 L -8.997,-13.063 M -8.741,-16.906 L -8.134,-14.5 M -5.336,-14.334 L -8.134,-14.5 M -8.997,-13.063 L -8.134,-14.5" stroke="#4C5950" stroke-width="0.069"/><path d=" M -14.631,-3.543 L -14.265,-6.008 L -6.664,-4.282 L -7.949,-0.102 L -12.372,-1.461 L -13.503,-3.2 L -14.631,-3.543" fill="#D6A36E" stroke="#4C5950" stroke-width="0.069"/><path d=" M -14.704,-3.595 L -13.251,-4.888 M -14.262,-5.988 L -13.251,-4.888 M -13.251,-4.888 L -12.67,-4.74 M -12.67,-4.74 L -11.043,-3.875 M -6.687,-4.32 L -9.345,-3.453 M -11.043,-3.875 L -9.345,-3.453 M -7.931,-0.12 L -9.345,-3.453" stroke="#4C5950" stroke-width="0.069"/><path d=" M -9.493,-4.924 L -13.757,-5.892 L -13.344,-8.673 L -12.698,-9.752 L -8.523,-7.844 L -9.493,-4.924" fill="#D6A36E" stroke="#4C5950" stroke-width="0.069"/><path d=" M -12.728,-9.744 L -12.277,-8.649 M -9.49,-4.922 L -10.618,-7.467 M -8.55,-7.805 L -10.618,-7.467 M -13.75,-5.88 L -11.739,-7.89 M -10.618,-7.467 L -11.739,-7.89 M -12.277,-8.649 L -11.739,-7.89" stroke="#4C5950" stroke-width="0.069"/><path d=" M -13.014,-9.896 L -12.098,-11.428 L -7.948,-9.573 L -8.523,-7.844 L -13.014,-9.896" fill="#D6A36E" stroke="#4C5950" stroke-width="0.069"/><path d=" M -12.082,-11.42 L -11.717,-10.579 M -12.994,-9.877 L -11.717,-10.579 M -7.964,-9.599 L -9.074,-9.402 M -11.717,-10.579 L -9.074,-9.402 M -8.52,-7.855 L -9.074,-9.402" stroke="#4C5950" stroke-width="0.069"/><path d=" M -5.689,-7.454 L -5.304,-8.707 L -0.561,-13.78 L -0.361,-13.593 L 4.08,-4.591 L 4.051,-4.461 L -5.689,-7.454" fill="#D6A36E" stroke="#4C5950" stroke-width="0.069"/><path d=" M 4.006,-4.429 L 3.909,-4.651 M -0.567,-13.778 L -0.558,-13.54 M -5.682,-7.46 L -4.389,-8.498 M -0.558,-13.54 L -1.216,-9.919 M -4.389,-8.498 L -1.216,-9.919 M 3.909,-4.651 L -1.216,-9.919" stroke="#4C5950" stroke-width="0.069"/><path d=" M -3.143,1.349 L -7.941,-0.126 L -7.332,-2.108 L -2.534,-0.634 L -3.143,1.349" fill="#D6A36E" stroke="#4C5950" stroke-width="0.069"/><path d=" M -7.379,-2.117 L -6.679,-1.169 M -7.948,-0.144 L -6.679,-1.169 M -3.161,1.359 L -3.844,-0.294 M -2.539,-0.637 L -3.844,-0.294 M -6.679,-1.169 L -3.844,-0.294" stroke="#4C5950" stroke-width="0.069"/><path d=" M -0.891,-5.98 L 4.051,-4.461 L 2.943,0.429 L 0.621,0.436 L -1.764,2.45 L -3.333,1.968 L -0.891,-5.98" fill="#D6A36E" stroke="#4C5950" stroke-width="0.069"/><path d=" M -3.328,1.972 L -2.006,0.936 M -2.006,0.936 L -0.145,-2.199 M 4.037,-4.518 L 0.89,-3.583 M -0.863,-5.993 L 0.89,-3.583 M 0.89,-3.583 L 0.754,-3.088 M -0.145,-2.199 L 0.754,-3.088 M 2.87,0.445 L 0.754,-3.088" stroke="#4C5950" stroke-width="0.069"/></g><g><path d=" M 0,0"/></g><g><path d=" M 0,0"/></g><g><path d=" M 0,0"/><path d=" M -2.309,27.191 L -2.309,27.791 L -2.44,31.568 L -2.97,31.55 L -3.483,30.711 L -5.401,30.067 L -5.401,29.467 L -3.483,30.111 L -2.97,30.95 L -2.44,30.968 L -2.309,27.191" fill="#606661" stroke="#4C5950" stroke-width="0.069"/><path d=" M -2.44,31.568 L -2.44,30.968 M -2.97,31.55 L -2.97,30.95 M -3.483,30.711 L -3.483,30.111" stroke="#4C5950" stroke-width="0.069"/><path d=" M -6.83,30.424 L -6.83,31.024 L -8.457,29.93 L -8.457,29.33 L -6.83,30.424" fill="#606661" stroke="#4C5950" stroke-width="0.069"/><path d=" M -2.164,22.987 L -2.164,23.587 L -2.309,27.791 L -4.61,27.712 L -5.63,30.752 L -5.734,30.717 L -6.061,30.845 L -6.229,30.789 L -6.83,31.024 L -6.83,30.424 L -6.229,30.189 L -6.061,30.245 L -5.734,30.117 L -5.63,30.152 L -4.61,27.112 L -2.309,27.191 L -2.164,22.987" fill="#606661" stroke="#4C5950" stroke-width="0.069"/><path d=" M -2.309,27.791 L -2.309,27.191 M -4.61,27.712 L -4.61,27.112 M -5.63,30.752 L -5.63,30.152 M -5.734,30.717 L -5.734,30.117 M -6.061,30.845 L -6.061,30.245 M -6.229,30.789 L -6.229,30.189" stroke="#4C5950" stroke-width="0.069"/><path d=" M -11.507,22.96 L -11.507,23.56 L -12.806,27.407 L -16.642,24.826 L -16.642,24.226 L -12.806,26.807 L -11.507,22.96" fill="#606661" stroke="#4C5950" stroke-width="0.069"/><path d=" M -12.806,27.407 L -12.806,26.807" stroke="#4C5950" stroke-width="0.069"/><path d=" M -6.656,23.13 L -6.656,23.73 L -6.666,27.269 L -8.462,29.938 L -12.698,27.087 L -12.698,26.487 L -8.462,29.338 L -6.666,26.669 L -6.656,23.13" fill="#606661" stroke="#4C5950" stroke-width="0.069"/><path d=" M -6.666,27.269 L -6.666,26.669 M -8.462,29.938 L -8.462,29.338" stroke="#4C5950" stroke-width="0.069"/><path d=" M 4.68,24.434 L 4.68,25.034 L 3.739,28.563 L -2.305,27.674 L -2.305,27.074 L 3.739,27.963 L 4.68,24.434" fill="#606661" stroke="#4C5950" stroke-width="0.069"/><path d=" M 3.739,28.563 L 3.739,27.963" stroke="#4C5950" stroke-width="0.069"/><path d=" M 2.652,32.039 L 2.652,32.639 L -2.47,32.463 L -2.47,31.863 L 2.652,32.039" fill="#606661" stroke="#4C5950" stroke-width="0.069"/><path d=" M 3.739,27.963 L 3.739,28.563 L 2.652,32.639 L 2.652,32.039 L 3.739,27.963" fill="#606661" stroke="#4C5950" stroke-width="0.069"/><path d=" M 8.129,31.068 L 8.129,31.668 L 6.712,32.779 L 2.652,32.639 L 2.652,32.039 L 6.712,32.179 L 8.129,31.068" fill="#606661" stroke="#4C5950" stroke-width="0.069"/><path d=" M 6.712,32.779 L 6.712,32.179" stroke="#4C5950" stroke-width="0.069"/><path d=" M -3.483,30.111 L -5.401,29.467 L -4.61,27.112 L -2.309,27.191 L -2.44,30.968 L -2.97,30.95 L -3.483,30.111" fill="#D6A36E" stroke="#4C5950" stroke-width="0.069"/><path d=" M -2.425,30.966 L -2.789,30.435 M -2.789,30.435 L -3.034,29.381 M -4.618,27.142 L -3.693,28.04 M -2.368,27.208 L -3.693,28.04 M -5.399,29.433 L -3.717,28.171 M -3.034,29.381 L -3.717,28.171 M -3.693,28.04 L -3.717,28.171" stroke="#4C5950" stroke-width="0.069"/><path d=" M -6.229,30.189 L -6.83,30.424 L -8.457,29.33 L -6.666,26.669 L -6.655,22.974 L -2.164,22.987 L -2.309,27.191 L -4.61,27.112 L -5.63,30.152 L -5.734,30.117 L -6.061,30.245 L -6.229,30.189" fill="#D6A36E" stroke="#4C5950" stroke-width="0.069"/><path d=" M -5.717,30.083 L -5.697,29.887 M -5.64,30.156 L -5.697,29.887 M -6.056,29.444 L -6.212,28.997 M -8.43,29.311 L -6.694,28.564 M -6.694,28.564 L -6.595,28.473 M -6.595,28.473 L -5.645,26.627 M -4.625,27.099 L -5.474,25.511 M -5.645,26.627 L -5.474,25.511 M -6.657,22.967 L -4.597,24.353 M -5.474,25.511 L -4.597,24.353 M -2.303,27.132 L -4.273,24.356 M -2.12,22.997 L -4.273,24.356 M -4.597,24.353 L -4.273,24.356" stroke="#4C5950" stroke-width="0.069"/><path d=" M -12.806,26.807 L -16.642,24.226 L -16.097,24.197 L -14.763,22.951 L -11.507,22.96 L -12.806,26.807" fill="#D6A36E" stroke="#4C5950" stroke-width="0.069"/><path d=" M -16.656,24.23 L -15.986,24.337 M -15.986,24.337 L -14.269,23.799 M -11.489,22.962 L -13.603,23.941 M -14.269,23.799 L -13.603,23.941 M -12.808,26.808 L -13.603,23.941" stroke="#4C5950" stroke-width="0.069"/><path d=" M -11.559,23.115 L -6.656,23.13 L -6.666,26.669 L -8.462,29.338 L -12.698,26.487 L -11.559,23.115" fill="#D6A36E" stroke="#4C5950" stroke-width="0.069"/><path d=" M -11.538,23.099 L -9.803,24.732 M -12.712,26.529 L -9.803,24.732 M -8.48,29.347 L -9.148,25.077 M -6.656,23.13 L -9.253,24.845 M -9.148,25.077 L -9.253,24.845 M -9.803,24.732 L -9.253,24.845" stroke="#4C5950" stroke-width="0.069"/><path d=" M -2.305,27.074 L -2.164,22.987 L 2.513,23.001 L 2.609,23.258 L 4.68,24.434 L 3.739,27.963 L -2.305,27.074" fill="#D6A36E" stroke="#4C5950" stroke-width="0.069"/><path d=" M 2.535,23.008 L 1.919,23.523 M -2.337,27.067 L -0.062,24.459 M -2.181,22.976 L -0.062,24.459 M 4.683,24.435 L 2.118,24.794 M 3.751,28.018 L 2.118,24.794 M 2.118,24.794 L 1.513,24.548 M -0.062,24.459 L 1.513,24.548" stroke="#4C5950" stroke-width="0.069"/><path d=" M 3.739,27.963 L 2.652,32.039 L -2.47,31.863 L -2.305,27.074 L 3.739,27.963" fill="#D6A36E" stroke="#4C5950" stroke-width="0.069"/><path d=" M 2.677,32.009 L 1.018,29.065 M 3.734,27.995 L 1.018,29.065 M -2.446,31.853 L -0.158,28.937 M 1.018,29.065 L -0.158,28.937 M -2.339,27.099 L -0.158,28.937" stroke="#4C5950" stroke-width="0.069"/><path d=" M 4.68,24.434 L 4.81,24.508 L 6.097,24.271 L 7.348,27.516 L 8.129,31.068 L 6.712,32.179 L 2.652,32.039 L 4.68,24.434" fill="#D6A36E" stroke="#4C5950" stroke-width="0.069"/><path d=" M 4.649,24.422 L 4.788,24.686 M 6.111,24.252 L 5.455,25.109 M 5.455,25.109 L 5.596,27.471 M 2.672,32.023 L 5.554,29.139 M 5.596,27.471 L 5.554,29.139 M 6.101,29.749 L 5.554,29.139" stroke="#4C5950" stroke-width="0.069"/></g><g><path d=" M 0,0"/></g><g><path d=" M 0,0"/><path d=" M -15.389,-9.448 L -15.389,-8.848 L -20.502,-7.82 L -21.212,-9.771 L -21.212,-10.371 L -20.502,-8.42 L -15.389,-9.448" fill="#606661" stroke="#4C5950" stroke-width="0.069"/><path d=" M -20.502,-7.82 L -20.502,-8.42" stroke="#4C5950" stroke-width="0.069"/><path d=" M -18.897,-18.003 L -18.897,-17.403 L -23.33,-15.585 L -23.678,-16.542 L -23.678,-17.142 L -23.33,-16.185 L -18.897,-18.003" fill="#606661" stroke="#4C5950" stroke-width="0.069"/><path d=" M -23.33,-15.585 L -23.33,-16.185" stroke="#4C5950" stroke-width="0.069"/><path d=" M -20.595,-8.676 L -20.595,-8.076 L -28.187,-6.55 L -28.532,-6.983 L -28.532,-7.583 L -28.187,-7.15 L -20.595,-8.676" fill="#606661" stroke="#4C5950" stroke-width="0.069"/><path d=" M -28.187,-6.55 L -28.187,-7.15" stroke="#4C5950" stroke-width="0.069"/><path d=" M -21.76,-11.875 L -21.76,-11.275 L -24.855,-10.148 L -26.738,-10.945 L -26.738,-11.545 L -24.855,-10.748 L -21.76,-11.875" fill="#606661" stroke="#4C5950" stroke-width="0.069"/><path d=" M -24.855,-10.148 L -24.855,-10.748" stroke="#4C5950" stroke-width="0.069"/><path d=" M -22.646,-14.307 L -22.646,-13.707 L -25.233,-13.615 L -25.233,-14.215 L -22.646,-14.307" fill="#606661" stroke="#4C5950" stroke-width="0.069"/><path d=" M -14.645,-17.118 L -14.645,-16.518 L -17.575,-14.179 L -19.816,-19.644 L -19.816,-20.244 L -17.575,-14.779 L -14.645,-17.118" fill="#606661" stroke="#4C5950" stroke-width="0.069"/><path d=" M -17.575,-14.179 L -17.575,-14.779" stroke="#4C5950" stroke-width="0.069"/><path d=" M -11.813,-15.424 L -11.813,-14.824 L -15.388,-8.848 L -15.389,-8.848 L -17.575,-14.179 L -17.575,-14.779 L -15.389,-9.448 L -15.388,-9.448 L -11.813,-15.424" fill="#606661" stroke="#4C5950" stroke-width="0.069"/><path d=" M -15.388,-8.848 L -15.388,-9.448 M -15.389,-8.848 L -15.389,-9.448" stroke="#4C5950" stroke-width="0.069"/><path d=" M -14.449,-17.001 L -14.449,-16.401 L -16.148,-17.417 L -18.358,-21.21 L -18.358,-21.81 L -16.148,-18.017 L -14.449,-17.001" fill="#606661" stroke="#4C5950" stroke-width="0.069"/><path d=" M -16.148,-17.417 L -16.148,-18.017" stroke="#4C5950" stroke-width="0.069"/><path d=" M -12.634,-19.107 L -12.634,-18.507 L -14.449,-16.401 L -14.449,-17.001 L -12.634,-19.107" fill="#606661" stroke="#4C5950" stroke-width="0.069"/><path d=" M -8.395,-21.135 L -8.395,-20.535 L -11.813,-14.824 L -14.449,-16.401 L -14.449,-17.001 L -11.813,-15.424 L -8.395,-21.135" fill="#606661" stroke="#4C5950" stroke-width="0.069"/><path d=" M -11.813,-14.824 L -11.813,-15.424" stroke="#4C5950" stroke-width="0.069"/><path d=" M -16.551,-12.282 L -15.389,-9.448 L -20.502,-8.42 L -21.212,-10.371 L -16.551,-12.282" fill="#D6A36E" stroke="#4C5950" stroke-width="0.069"/><path d=" M -20.493,-8.414 L -19.763,-10.106 M -21.202,-10.368 L -19.763,-10.106 M -16.581,-12.243 L -17.304,-10.934 M -19.763,-10.106 L -17.304,-10.934 M -15.396,-9.493 L -17.304,-10.934" stroke="#4C5950" stroke-width="0.069"/><path d=" M -23.33,-16.185 L -23.678,-17.142 L -23.203,-17.392 L -22.349,-19.484 L -20.053,-20.822 L -18.897,-18.003 L -23.33,-16.185" fill="#D6A36E" stroke="#4C5950" stroke-width="0.069"/><path d=" M -23.3,-16.237 L -23.019,-17.074 M -23.682,-17.151 L -23.019,-17.074 M -23.019,-17.074 L -22.755,-17.195 M -22.755,-17.195 L -21.236,-18.993 M -18.893,-17.978 L -20.737,-19.243 M -21.236,-18.993 L -20.737,-19.243 M -20.025,-20.795 L -20.737,-19.243" stroke="#4C5950" stroke-width="0.069"/><path d=" M -28.532,-7.583 L -26.838,-11.587 L -24.855,-10.748 L -21.76,-11.875 L -20.595,-8.676 L -28.187,-7.15 L -28.532,-7.583" fill="#D6A36E" stroke="#4C5950" stroke-width="0.069"/><path d=" M -21.752,-11.856 L -22.704,-10.38 M -20.599,-8.675 L -22.704,-10.38 M -22.704,-10.38 L -24.945,-9.712 M -26.804,-11.633 L -25.915,-9.919 M -27.973,-7.834 L -25.915,-9.919 M -24.945,-9.712 L -25.915,-9.919" stroke="#4C5950" stroke-width="0.069"/><path d=" M -24.855,-10.748 L -26.738,-11.545 L -25.614,-14.202 L -22.646,-14.307 L -21.76,-11.875 L -24.855,-10.748" fill="#D6A36E" stroke="#4C5950" stroke-width="0.069"/><path d=" M -26.711,-11.546 L -24.805,-12.85 M -22.631,-14.376 L -23.686,-13.298 M -21.78,-11.884 L -23.686,-13.298 M -23.686,-13.298 L -24.54,-13.16 M -24.805,-12.85 L -24.54,-13.16" stroke="#4C5950" stroke-width="0.069"/><path d=" M -24.34,-16.326 L -23.535,-16.75 L -22.646,-14.307 L -25.233,-14.215 L -24.34,-16.326" fill="#D6A36E" stroke="#4C5950" stroke-width="0.069"/><path d=" M -23.515,-16.777 L -23.855,-16.113 M -23.855,-16.113 L -23.884,-15.446 M -25.234,-14.218 L -23.884,-15.446 M -22.681,-14.337 L -23.884,-15.446" stroke="#4C5950" stroke-width="0.069"/><path d=" M -19.816,-20.244 L -18.046,-21.275 L -16.148,-18.017 L -14.645,-17.118 L -17.575,-14.779 L -19.816,-20.244" fill="#D6A36E" stroke="#4C5950" stroke-width="0.069"/><path d=" M -18.034,-21.296 L -18.438,-20.148 M -19.817,-20.248 L -18.438,-20.148 M -18.438,-20.148 L -17.104,-17.475 M -14.645,-17.118 L -17.017,-17.389 M -17.104,-17.475 L -17.017,-17.389 M -17.582,-14.768 L -17.017,-17.389" stroke="#4C5950" stroke-width="0.069"/><path d=" M -14.645,-17.118 L -11.813,-15.424 L -15.388,-9.448 L -15.389,-9.448 L -17.575,-14.779 L -14.645,-17.118" fill="#D6A36E" stroke="#4C5950" stroke-width="0.069"/><path d=" M -15.388,-9.448 L -15.389,-9.451 M -11.826,-15.424 L -14.475,-15.397 M -14.626,-17.091 L -14.475,-15.397 M -17.558,-14.787 L -15.034,-14.812 M -14.475,-15.397 L -15.034,-14.812 M -15.389,-9.451 L -15.034,-14.812" stroke="#4C5950" stroke-width="0.069"/><path d=" M -12.634,-19.107 L -14.449,-17.001 L -16.148,-18.017 L -18.358,-21.81 L -16.44,-22.926 L -15.462,-21.967 L -14.647,-21.904 L -12.634,-19.107" fill="#D6A36E" stroke="#4C5950" stroke-width="0.069"/><path d=" M -18.326,-21.853 L -16.628,-21.799 M -16.429,-22.938 L -16.628,-21.799 M -16.628,-21.799 L -16.042,-21.081 M -16.042,-21.081 L -15.55,-20.863 M -12.641,-19.129 L -14.832,-19.787 M -14.439,-16.998 L -14.832,-19.787 M -15.55,-20.863 L -14.876,-19.831 M -14.832,-19.787 L -14.876,-19.831" stroke="#4C5950" stroke-width="0.069"/><path d=" M -9.7,-22.512 L -8.395,-21.135 L -11.813,-15.424 L -14.449,-17.001 L -9.7,-22.512" fill="#D6A36E" stroke="#4C5950" stroke-width="0.069"/><path d=" M -8.401,-21.144 L -9.703,-21.344 M -9.756,-22.555 L -9.703,-21.344 M -11.812,-15.461 L -12.307,-17.804 M -9.703,-21.344 L -12.307,-17.804 M -14.446,-16.953 L -12.307,-17.804" stroke="#4C5950" stroke-width="0.069"/></g><g><path d=" M 0,0"/><path d=" M 3.354,-18.836 L 3.354,-18.236 L 0.975,-20.849 L 0.975,-21.449 L 3.354,-18.836" fill="#606661" stroke="#4C5950" stroke-width="0.069"/><path d=" M 4.968,-20.454 L 4.968,-19.854 L 3.354,-18.236 L 3.354,-18.836 L 4.968,-20.454" fill="#606661" stroke="#4C5950" stroke-width="0.069"/><path d=" M 3.215,-18.989 L 3.215,-18.389 L 0.33,-15.497 L -2.252,-17.911 L -2.252,-18.511 L 0.33,-16.097 L 3.215,-18.989" fill="#606661" stroke="#4C5950" stroke-width="0.069"/><path d=" M 0.33,-15.497 L 0.33,-16.097" stroke="#4C5950" stroke-width="0.069"/><path d=" M 3.091,-23.376 L 3.091,-22.776 L 0.627,-20.532 L -2.741,-24.228 L -2.741,-24.828 L 0.627,-21.132 L 3.091,-23.376" fill="#606661" stroke="#4C5950" stroke-width="0.069"/><path d=" M 0.627,-20.532 L 0.627,-21.132" stroke="#4C5950" stroke-width="0.069"/><path d=" M -2.475,-18.307 L -2.475,-17.707 L -6.138,-21.132 L -6.138,-21.732 L -2.475,-18.307" fill="#606661" stroke="#4C5950" stroke-width="0.069"/><path d=" M 0.627,-21.132 L 0.627,-20.532 L -2.475,-17.707 L -2.475,-18.307 L 0.627,-21.132" fill="#606661" stroke="#4C5950" stroke-width="0.069"/><path d=" M -3.255,-24.36 L -3.255,-23.76 L -5.779,-21.459 L -7.248,-23.01 L -7.248,-23.61 L -5.779,-22.059 L -3.255,-24.36" fill="#606661" stroke="#4C5950" stroke-width="0.069"/><path d=" M -5.779,-21.459 L -5.779,-22.059" stroke="#4C5950" stroke-width="0.069"/><path d=" M -0.249,-27.099 L -0.249,-26.499 L -3.255,-23.76 L -5.879,-27.325 L -5.879,-27.925 L -3.255,-24.36 L -0.249,-27.099" fill="#606661" stroke="#4C5950" stroke-width="0.069"/><path d=" M -3.255,-23.76 L -3.255,-24.36" stroke="#4C5950" stroke-width="0.069"/><path d=" M 4.968,-20.454 L 3.354,-18.836 L 0.975,-21.449 L 2.864,-23.168 L 4.968,-20.454" fill="#D6A36E" stroke="#4C5950" stroke-width="0.069"/><path d=" M 3.303,-18.852 L 3.381,-20.944 M 4.962,-20.416 L 3.381,-20.944 M 2.878,-23.181 L 2.716,-21.772 M 1.008,-21.45 L 2.716,-21.772 M 3.381,-20.944 L 2.716,-21.772" stroke="#4C5950" stroke-width="0.069"/><path d=" M 0.33,-16.097 L -2.252,-18.511 L 0.975,-21.449 L 3.215,-18.989 L 0.33,-16.097" fill="#D6A36E" stroke="#4C5950" stroke-width="0.069"/><path d=" M 0.964,-21.449 L 0.851,-19.611 M 3.208,-18.987 L 0.851,-19.611 M -2.279,-18.503 L 0.278,-19.072 M 0.851,-19.611 L 0.278,-19.072 M 0.328,-16.115 L 0.278,-19.072" stroke="#4C5950" stroke-width="0.069"/><path d=" M -2.741,-24.828 L 0.017,-27.342 L 3.091,-23.376 L 0.627,-21.132 L -2.741,-24.828" fill="#D6A36E" stroke="#4C5950" stroke-width="0.069"/><path d=" M 3.106,-23.372 L 0.719,-24.158 M 0.584,-21.091 L 0.719,-24.158 M -0.019,-27.346 L -0.226,-25.303 M -2.738,-24.825 L -0.226,-25.303 M 0.719,-24.158 L -0.226,-25.303" stroke="#4C5950" stroke-width="0.069"/><path d=" M 0.627,-21.132 L -2.475,-18.307 L -6.138,-21.732 L -2.741,-24.828 L 0.627,-21.132" fill="#D6A36E" stroke="#4C5950" stroke-width="0.069"/><path d=" M -2.476,-18.308 L -2.453,-22.016 M 0.644,-21.145 L -2.453,-22.016 M -6.135,-21.737 L -2.888,-22.463 M -2.453,-22.016 L -2.888,-22.463 M -2.757,-24.858 L -2.888,-22.463" stroke="#4C5950" stroke-width="0.069"/><path d=" M -6.038,-27.957 L -5.943,-28.012 L -3.255,-24.36 L -5.779,-22.059 L -7.248,-23.61 L -6.607,-24.175 L -6.038,-27.957" fill="#D6A36E" stroke="#4C5950" stroke-width="0.069"/><path d=" M -5.964,-27.969 L -5.961,-27.934 M -5.777,-22.063 L -5.743,-23.878 M -7.277,-23.573 L -5.743,-23.878 M -5.743,-23.878 L -5.62,-23.988 M -5.961,-27.934 L -5.132,-25.004 M -5.62,-23.988 L -5.132,-25.004 M -3.266,-24.368 L -5.132,-25.004" stroke="#4C5950" stroke-width="0.069"/><path d=" M -2.442,-29.928 L -0.249,-27.099 L -3.255,-24.36 L -5.879,-27.925 L -2.442,-29.928" fill="#D6A36E" stroke="#4C5950" stroke-width="0.069"/><path d=" M -0.235,-27.103 L -2.938,-28 M -2.452,-29.937 L -2.938,-28 M -3.299,-24.349 L -2.961,-27.984 M -2.938,-28 L -2.961,-27.984 M -5.814,-27.933 L -2.961,-27.984" stroke="#4C5950" stroke-width="0.069"/><path d=" M 8.403,-23.401 L 5.995,-20.987 L 2.831,-25.07 L 8.735,-29.646 L 13.686,-28.433 L 13.818,-28.04 L 8.403,-23.401" fill="#606661" stroke="#4C5950" stroke-width="0.069" stroke-linejoin="miter" stroke-linecap="round"/></g><g><path d=" M 0,0"/><path d=" M 28.277,3.067 L 28.277,3.667 L 24.957,4.893 L 23.511,0.979 L 23.511,0.379 L 24.957,4.293 L 28.277,3.067" fill="#606661" stroke="#4C5950" stroke-width="0.069"/><path d=" M 24.957,4.893 L 24.957,4.293" stroke="#4C5950" stroke-width="0.069"/><path d=" M 32.265,14.328 L 32.265,14.928 L 31.029,16.673 L 31.029,16.073 L 32.265,14.328" fill="#606661" stroke="#4C5950" stroke-width="0.069"/><path d=" M 31.127,17.264 L 31.127,17.864 L 28.536,20.174 L 26.988,18.944 L 26.988,18.344 L 28.536,19.574 L 31.127,17.264" fill="#606661" stroke="#4C5950" stroke-width="0.069"/><path d=" M 28.536,20.174 L 28.536,19.574" stroke="#4C5950" stroke-width="0.069"/><path d=" M 34.469,9.937 L 34.469,10.537 L 33.19,14.84 L 32.424,15.041 L 30.28,13.522 L 28.916,9.83 L 28.916,9.23 L 30.28,12.922 L 32.424,14.441 L 33.19,14.24 L 34.469,9.937" fill="#606661" stroke="#4C5950" stroke-width="0.069"/><path d=" M 33.19,14.84 L 33.19,14.24 M 32.424,15.041 L 32.424,14.441 M 30.28,13.522 L 30.28,12.922" stroke="#4C5950" stroke-width="0.069"/><path d=" M 37.564,-1.404 L 37.564,-0.804 L 36.871,0.469 L 36.871,-0.131 L 37.564,-1.404" fill="#606661" stroke="#4C5950" stroke-width="0.069"/><path d=" M 36.987,0.443 L 36.987,1.043 L 35.356,1.508 L 33.544,-3.397 L 33.544,-3.997 L 35.356,0.908 L 36.987,0.443" fill="#606661" stroke="#4C5950" stroke-width="0.069"/><path d=" M 35.356,1.508 L 35.356,0.908" stroke="#4C5950" stroke-width="0.069"/><path d=" M 35.356,0.908 L 35.356,1.508 L 32.468,2.333 L 30.823,-2.118 L 30.823,-2.718 L 32.468,1.733 L 35.356,0.908" fill="#606661" stroke="#4C5950" stroke-width="0.069"/><path d=" M 32.468,2.333 L 32.468,1.733" stroke="#4C5950" stroke-width="0.069"/><path d=" M 32.468,1.733 L 32.468,2.333 L 28.231,3.543 L 26.75,-0.465 L 26.75,-1.065 L 28.231,2.943 L 32.468,1.733" fill="#606661" stroke="#4C5950" stroke-width="0.069"/><path d=" M 28.231,3.543 L 28.231,2.943" stroke="#4C5950" stroke-width="0.069"/><path d=" M 34.506,9.948 L 34.506,10.548 L 32.538,9.963 L 32.538,9.363 L 34.506,9.948" fill="#606661" stroke="#4C5950" stroke-width="0.069"/><path d=" M 33.571,5.888 L 33.571,6.488 L 32.391,2.355 L 32.391,1.755 L 33.571,5.888" fill="#606661" stroke="#4C5950" stroke-width="0.069"/><path d=" M 36.655,2.722 L 36.655,3.322 L 34.506,10.548 L 34.506,9.948 L 36.655,2.722" fill="#606661" stroke="#4C5950" stroke-width="0.069"/><path d=" M 20.758,-0.148 L 20.758,0.452 L 20.139,3.249 L 15.44,2.479 L 15.44,1.879 L 20.139,2.649 L 20.758,-0.148" fill="#606661" stroke="#4C5950" stroke-width="0.069"/><path d=" M 20.139,3.249 L 20.139,2.649" stroke="#4C5950" stroke-width="0.069"/><path d=" M 24.076,3.929 L 24.076,4.529 L 19.816,4.711 L 19.816,4.111 L 24.076,3.929" fill="#606661" stroke="#4C5950" stroke-width="0.069"/><path d=" M 22.945,15.173 L 22.945,15.773 L 18.936,14.401 L 18.936,13.801 L 22.945,15.173" fill="#606661" stroke="#4C5950" stroke-width="0.069"/><path d=" M 25.072,8.959 L 25.072,9.559 L 22.945,15.773 L 22.945,15.173 L 25.072,8.959" fill="#606661" stroke="#4C5950" stroke-width="0.069"/><path d=" M 20.573,7.964 L 20.573,8.564 L 19.017,14.11 L 17.473,13.581 L 14.245,13.62 L 14.245,13.02 L 17.473,12.981 L 19.017,13.51 L 20.573,7.964" fill="#606661" stroke="#4C5950" stroke-width="0.069"/><path d=" M 19.017,14.11 L 19.017,13.51 M 17.473,13.581 L 17.473,12.981" stroke="#4C5950" stroke-width="0.069"/><path d=" M 9.304,5.399 L 9.304,5.999 L 7.372,2.378 L 5.565,1.65 L 5.565,1.05 L 7.372,1.778 L 9.304,5.399" fill="#606661" stroke="#4C5950" stroke-width="0.069"/><path d=" M 7.372,2.378 L 7.372,1.778" stroke="#4C5950" stroke-width="0.069"/><path d=" M 11.447,1.302 L 11.447,1.902 L 10.412,6.468 L 9.244,6.282 L 9.244,5.682 L 10.412,5.868 L 11.447,1.302" fill="#606661" stroke="#4C5950" stroke-width="0.069"/><path d=" M 10.412,6.468 L 10.412,5.868" stroke="#4C5950" stroke-width="0.069"/><path d=" M 12.214,-2.084 L 12.214,-1.484 L 11.447,1.902 L 5.121,0.469 L 5.121,-0.131 L 11.447,1.302 L 12.214,-2.084" fill="#606661" stroke="#4C5950" stroke-width="0.069"/><path d=" M 11.447,1.902 L 11.447,1.302" stroke="#4C5950" stroke-width="0.069"/><path d=" M 14.176,13.66 L 14.176,14.26 L 9.533,14.316 L 6.399,14.896 L 6.004,12.764 L 6.004,12.164 L 6.399,14.296 L 9.533,13.716 L 14.176,13.66" fill="#606661" stroke="#4C5950" stroke-width="0.069"/><path d=" M 9.533,14.316 L 9.533,13.716 M 6.399,14.896 L 6.399,14.296" stroke="#4C5950" stroke-width="0.069"/><path d=" M 14.368,11.872 L 14.368,12.472 L 14.176,14.26 L 14.176,13.66 L 14.368,11.872" fill="#606661" stroke="#4C5950" stroke-width="0.069"/><path d=" M 14.935,6.587 L 14.935,7.187 L 14.368,12.472 L 6.004,12.764 L 5.757,11.428 L 5.757,10.828 L 6.004,12.164 L 14.368,11.872 L 14.935,6.587" fill="#606661" stroke="#4C5950" stroke-width="0.069"/><path d=" M 14.368,12.472 L 14.368,11.872 M 6.004,12.764 L 6.004,12.164" stroke="#4C5950" stroke-width="0.069"/><path d=" M 15.755,-1.052 L 15.755,-0.452 L 14.988,6.696 L 11.79,6.353 L 11.79,5.753 L 14.988,6.096 L 15.755,-1.052" fill="#606661" stroke="#4C5950" stroke-width="0.069"/><path d=" M 14.988,6.696 L 14.988,6.096" stroke="#4C5950" stroke-width="0.069"/><path d=" M 23.511,0.379 L 26.831,-0.847 L 28.277,3.067 L 24.957,4.293 L 23.511,0.379" fill="#D6A36E" stroke="#4C5950" stroke-width="0.069"/><path d=" M 23.507,0.381 L 25.782,0.845 M 26.812,-0.823 L 25.782,0.845 M 25.782,0.845 L 25.998,1.416 M 24.95,4.289 L 25.998,1.416 M 28.294,3.044 L 25.998,1.416" stroke="#4C5950" stroke-width="0.069"/><path d=" M 28.536,19.574 L 26.988,18.344 L 30.931,13.383 L 32.265,14.328 L 31.029,16.073 L 31.127,17.264 L 28.536,19.574" fill="#D6A36E" stroke="#4C5950" stroke-width="0.069"/><path d=" M 30.931,13.385 L 31.091,14.25 M 32.251,14.33 L 31.091,14.25 M 31.091,14.25 L 30.127,15.525 M 26.99,18.344 L 28.502,17.813 M 28.546,19.585 L 28.502,17.813 M 28.502,17.813 L 29.838,16.335 M 30.127,15.525 L 29.838,16.335" stroke="#4C5950" stroke-width="0.069"/><path d=" M 30.363,8.716 L 34.469,9.937 L 33.19,14.24 L 32.424,14.441 L 30.28,12.922 L 28.916,9.23 L 30.357,8.698 L 30.363,8.716" fill="#D6A36E" stroke="#4C5950" stroke-width="0.069"/><path d=" M 30.377,8.693 L 30.315,8.751 M 30.37,8.733 L 30.315,8.751 M 28.96,9.206 L 30.345,9.496 M 32.578,13.353 L 31.923,11.042 M 31.923,11.042 L 31.914,10.658 M 34.472,9.965 L 31.914,10.658 M 30.345,9.496 L 31.914,10.658" stroke="#4C5950" stroke-width="0.069"/><path d=" M 33.544,-3.997 L 36.238,-4.992 L 37.564,-1.404 L 36.871,-0.131 L 36.987,0.443 L 35.356,0.908 L 33.544,-3.997" fill="#D6A36E" stroke="#4C5950" stroke-width="0.069"/><path d=" M 35.347,0.91 L 35.914,-0.506 M 36.987,0.443 L 35.914,-0.506 M 35.914,-0.506 L 35.891,-0.589 M 33.553,-4.019 L 35.39,-3.637 M 36.233,-4.987 L 35.39,-3.637 M 35.891,-0.589 L 35.99,-2.019 M 35.39,-3.637 L 35.99,-2.019" stroke="#4C5950" stroke-width="0.069"/><path d=" M 32.468,1.733 L 30.823,-2.718 L 33.633,-3.756 L 35.356,0.908 L 32.468,1.733" fill="#D6A36E" stroke="#4C5950" stroke-width="0.069"/><path d=" M 33.588,-3.763 L 32.726,-2.358 M 30.83,-2.737 L 32.726,-2.358 M 32.726,-2.358 L 33.395,-0.569 M 32.478,1.738 L 33.395,-0.569 M 35.356,0.908 L 33.395,-0.569" stroke="#4C5950" stroke-width="0.069"/><path d=" M 28.231,2.943 L 26.75,-1.065 L 30.871,-2.588 L 32.468,1.733 L 28.231,2.943" fill="#D6A36E" stroke="#4C5950" stroke-width="0.069"/><path d=" M 32.46,1.716 L 29.577,-0.457 M 28.265,2.914 L 29.577,-0.457 M 29.577,-0.457 L 29.561,-0.497 M 30.829,-2.577 L 29.561,-0.497 M 26.727,-1.036 L 29.561,-0.497" stroke="#4C5950" stroke-width="0.069"/><path d=" M 36.655,2.722 L 34.506,9.948 L 32.538,9.363 L 33.571,5.888 L 32.391,1.755 L 36.019,0.719 L 36.38,2.503 L 36.655,2.722" fill="#D6A36E" stroke="#4C5950" stroke-width="0.069"/><path d=" M 32.557,9.354 L 33.787,8.374 M 34.438,9.95 L 33.787,8.374 M 33.787,8.374 L 34.647,5.562 M 36.693,2.713 L 35.356,2.832 M 34.647,5.562 L 34.679,2.576 M 36.017,0.723 L 34.641,2.418 M 34.679,2.576 L 34.641,2.418 M 32.431,1.812 L 34.641,2.418" stroke="#4C5950" stroke-width="0.069"/><path d=" M 15.44,1.879 L 15.779,-1.276 L 20.758,-0.148 L 20.139,2.649 L 15.44,1.879" fill="#D6A36E" stroke="#4C5950" stroke-width="0.069"/><path d=" M 20.165,2.621 L 19.033,0.452 M 20.803,-0.179 L 19.033,0.452 M 19.033,0.452 L 17.086,0.065 M 15.74,-1.288 L 17.086,0.065 M 15.41,1.861 L 17.086,0.065" stroke="#4C5950" stroke-width="0.069"/><path d=" M 22.287,0.831 L 22.855,0.621 L 24.076,3.929 L 19.816,4.111 L 20.624,0.454 L 22.287,0.831" fill="#D6A36E" stroke="#4C5950" stroke-width="0.069"/><path d=" M 22.876,0.608 L 22.368,1.468 M 20.651,0.485 L 21.845,1.834 M 19.846,4.131 L 21.851,1.915 M 24.1,3.945 L 21.851,1.915 M 21.845,1.834 L 21.851,1.915" stroke="#4C5950" stroke-width="0.069"/><path d=" M 25.072,8.959 L 22.945,15.173 L 18.936,13.801 L 20.573,7.964 L 25.072,8.959" fill="#D6A36E" stroke="#4C5950" stroke-width="0.069"/><path d=" M 18.912,13.834 L 21.596,11.673 M 22.989,15.165 L 21.596,11.673 M 20.573,7.962 L 22.15,9.86 M 21.596,11.673 L 22.15,9.86 M 25.053,8.961 L 22.15,9.86" stroke="#4C5950" stroke-width="0.069"/><path d=" M 17.473,12.981 L 14.245,13.02 L 14.922,6.714 L 20.573,7.964 L 19.017,13.51 L 17.473,12.981" fill="#D6A36E" stroke="#4C5950" stroke-width="0.069"/><path d=" M 19.017,13.508 L 17.742,10.422 M 17.742,10.422 L 17.167,9.432 M 14.254,13.018 L 17.167,9.432 M 20.562,7.955 L 17.234,9.059 M 17.167,9.432 L 17.234,9.059 M 14.867,6.685 L 17.234,9.059" stroke="#4C5950" stroke-width="0.069"/><path d=" M 10.412,5.868 L 9.244,5.682 L 9.304,5.399 L 7.372,1.778 L 5.565,1.05 L 5.798,0.022 L 11.447,1.302 L 10.412,5.868" fill="#D6A36E" stroke="#4C5950" stroke-width="0.069"/><path d=" M 9.202,5.742 L 9.824,5.116 M 5.55,0.994 L 6.206,0.483 M 5.808,0.009 L 6.206,0.483 M 10.412,5.869 L 9.906,4.952 M 6.206,0.483 L 7.906,0.974 M 11.425,1.297 L 9.553,1.956 M 9.906,4.952 L 9.553,1.956 M 7.906,0.974 L 9.553,1.956" stroke="#4C5950" stroke-width="0.069"/><path d=" M 5.121,-0.131 L 5.888,-3.518 L 12.214,-2.084 L 11.447,1.302 L 5.121,-0.131" fill="#D6A36E" stroke="#4C5950" stroke-width="0.069"/><path d=" M 12.23,-2.086 L 10.16,-1.355 M 11.472,1.286 L 10.16,-1.355 M 5.131,-0.109 L 7.217,-2.013 M 10.16,-1.355 L 7.217,-2.013 M 5.905,-3.514 L 7.217,-2.013" stroke="#4C5950" stroke-width="0.069"/><path d=" M 14.368,11.872 L 14.176,13.66 L 9.533,13.716 L 6.399,14.296 L 6.004,12.164 L 14.368,11.872" fill="#D6A36E" stroke="#4C5950" stroke-width="0.069"/><path d=" M 14.38,11.884 L 13.406,12.501 M 14.199,13.661 L 13.406,12.501 M 13.406,12.501 L 9.457,12.601 M 6.383,14.29 L 7.192,12.788 M 6.002,12.159 L 7.192,12.788 M 9.457,12.601 L 7.192,12.788" stroke="#4C5950" stroke-width="0.069"/><path d=" M 6.004,12.164 L 5.757,10.828 L 7.782,9.242 L 8.558,5.573 L 14.935,6.587 L 14.368,11.872 L 6.004,12.164" fill="#D6A36E" stroke="#4C5950" stroke-width="0.069"/><path d=" M 5.991,12.167 L 6.731,10.89 M 6.731,10.89 L 9.419,9.651 M 14.936,6.587 L 11.738,8.066 M 14.378,11.872 L 11.738,8.066 M 8.554,5.577 L 10.913,7.989 M 9.419,9.651 L 10.913,7.989 M 11.738,8.066 L 10.913,7.989" stroke="#4C5950" stroke-width="0.069"/><path d=" M 13.45,-1.574 L 15.755,-1.052 L 14.988,6.096 L 11.79,5.753 L 13.45,-1.574" fill="#D6A36E" stroke="#4C5950" stroke-width="0.069"/><path d=" M 15.787,-1.088 L 14.398,-0.504 M 13.444,-1.572 L 14.398,-0.504 M 14.967,6.108 L 13.622,3.916 M 14.398,-0.504 L 13.622,3.916 M 11.746,5.755 L 13.622,3.916" stroke="#4C5950" stroke-width="0.069"/><path d=" M 8.441,27.015 L 8.441,27.615 L 7.221,24.45 L 7.221,23.85 L 8.441,27.015" fill="#606661" stroke="#4C5950" stroke-width="0.069"/><path d=" M 9.108,20.5 L 9.108,21.1 L 8.937,20.741 L 8.937,20.141 L 9.108,20.5" fill="#606661" stroke="#4C5950" stroke-width="0.069"/><path d=" M 13.134,24.844 L 13.134,25.444 L 8.441,27.615 L 8.441,27.015 L 13.134,24.844" fill="#606661" stroke="#4C5950" stroke-width="0.069"/><path d=" M 8.123,18.441 L 8.123,19.041 L 8.016,18.817 L 7.701,18.674 L 7.312,16.567 L 7.312,15.967 L 7.701,18.074 L 8.016,18.217 L 8.123,18.441" fill="#606661" stroke="#4C5950" stroke-width="0.069"/><path d=" M 8.016,18.817 L 8.016,18.217 M 7.701,18.674 L 7.701,18.074" stroke="#4C5950" stroke-width="0.069"/><path d=" M 11.713,19.525 L 11.713,20.125 L 9.352,20.649 L 8.711,19.308 L 8.123,19.041 L 8.123,18.441 L 8.711,18.708 L 9.352,20.049 L 11.713,19.525" fill="#606661" stroke="#4C5950" stroke-width="0.069"/><path d=" M 9.352,20.649 L 9.352,20.049 M 8.711,19.308 L 8.711,18.708" stroke="#4C5950" stroke-width="0.069"/><path d=" M 16.564,18.448 L 16.564,19.048 L 11.713,20.125 L 11.172,15.497 L 11.172,14.897 L 11.713,19.525 L 16.564,18.448" fill="#606661" stroke="#4C5950" stroke-width="0.069"/><path d=" M 11.713,20.125 L 11.713,19.525" stroke="#4C5950" stroke-width="0.069"/><path d=" M 19.714,26.255 L 19.714,26.855 L 19.566,26.936 L 19.001,28.378 L 16.037,29.534 L 13.967,25.059 L 13.967,24.459 L 16.037,28.934 L 19.001,27.778 L 19.566,26.336 L 19.714,26.255" fill="#606661" stroke="#4C5950" stroke-width="0.069"/><path d=" M 19.566,26.936 L 19.566,26.336 M 19.001,28.378 L 19.001,27.778 M 16.037,29.534 L 16.037,28.934" stroke="#4C5950" stroke-width="0.069"/><path d=" M 14.115,30.31 L 14.115,30.91 L 11.859,26.034 L 11.859,25.434 L 14.115,30.31" fill="#606661" stroke="#4C5950" stroke-width="0.069"/><path d=" M 16.283,29.465 L 16.283,30.065 L 14.115,30.91 L 14.115,30.31 L 16.283,29.465" fill="#606661" stroke="#4C5950" stroke-width="0.069"/><path d=" M 11.247,31.429 L 11.247,32.029 L 10.264,31.41 L 9.329,31.538 L 8.5,27.77 L 8.441,27.615 L 8.441,27.015 L 8.5,27.17 L 9.329,30.938 L 10.264,30.81 L 11.247,31.429" fill="#606661" stroke="#4C5950" stroke-width="0.069"/><path d=" M 10.264,31.41 L 10.264,30.81 M 9.329,31.538 L 9.329,30.938 M 8.5,27.77 L 8.5,27.17" stroke="#4C5950" stroke-width="0.069"/><path d=" M 14.115,30.31 L 14.115,30.91 L 11.247,32.029 L 11.247,31.429 L 14.115,30.31" fill="#606661" stroke="#4C5950" stroke-width="0.069"/><path d=" M 28.345,21.295 L 28.345,21.895 L 23.193,26.49 L 22.029,26.256 L 19.993,27.367 L 18.269,24.205 L 18.269,23.605 L 19.993,26.767 L 22.029,25.656 L 23.193,25.89 L 28.345,21.295" fill="#606661" stroke="#4C5950" stroke-width="0.069"/><path d=" M 23.193,26.49 L 23.193,25.89 M 22.029,26.256 L 22.029,25.656 M 19.993,27.367 L 19.993,26.767" stroke="#4C5950" stroke-width="0.069"/><path d=" M 24.017,18.688 L 24.017,19.288 L 21.711,21.261 L 19.257,18.393 L 16.556,18.425 L 16.528,16.079 L 16.528,15.479 L 16.556,17.825 L 19.257,17.793 L 21.711,20.661 L 24.017,18.688" fill="#606661" stroke="#4C5950" stroke-width="0.069"/><path d=" M 21.711,21.261 L 21.711,20.661 M 19.257,18.393 L 19.257,17.793 M 16.556,18.425 L 16.556,17.825" stroke="#4C5950" stroke-width="0.069"/><path d=" M 13.134,24.844 L 8.441,27.015 L 7.221,23.85 L 8.478,22.951 L 9.108,20.5 L 8.937,20.141 L 11.355,19.604 L 13.134,24.844" fill="#D6A36E" stroke="#4C5950" stroke-width="0.069"/><path d=" M 8.936,20.132 L 9.503,20.295 M 11.372,19.679 L 10.386,20.872 M 8.465,27.017 L 9.469,23.908 M 7.222,23.846 L 9.469,23.908 M 9.469,23.908 L 10.146,23.494 M 13.139,24.862 L 10.485,23.009 M 10.386,20.872 L 10.485,23.009 M 10.146,23.494 L 10.485,23.009" stroke="#4C5950" stroke-width="0.069"/><path d=" M 8.711,18.708 L 8.123,18.441 L 8.016,18.217 L 7.701,18.074 L 7.312,15.967 L 10.345,15.406 L 11.23,15.396 L 11.713,19.525 L 9.352,20.049 L 8.711,18.708" fill="#D6A36E" stroke="#4C5950" stroke-width="0.069"/><path d=" M 11.231,15.396 L 10.447,16 M 7.33,16.002 L 8.931,16.646 M 8.931,16.646 L 8.967,16.647 M 11.679,19.574 L 10.128,17.966 M 9.302,20.061 L 10.128,17.966 M 10.128,17.966 L 9.906,17.11 M 8.967,16.647 L 9.288,16.719 M 9.906,17.11 L 9.692,16.735 M 9.288,16.719 L 9.692,16.735 M 10.447,16 L 9.692,16.735" stroke="#4C5950" stroke-width="0.069"/><path d=" M 11.172,14.897 L 16.52,14.832 L 16.564,18.448 L 11.713,19.525 L 11.172,14.897" fill="#D6A36E" stroke="#4C5950" stroke-width="0.069"/><path d=" M 16.506,14.847 L 14.544,16.19 M 16.574,18.453 L 14.544,16.19 M 14.544,16.19 L 13.529,16.269 M 11.15,14.876 L 13.529,16.269 M 11.716,19.537 L 13.529,16.269" stroke="#4C5950" stroke-width="0.069"/><path d=" M 17.773,22.698 L 19.714,26.255 L 19.566,26.336 L 19.001,27.778 L 16.037,28.934 L 13.967,24.459 L 17.773,22.698" fill="#D6A36E" stroke="#4C5950" stroke-width="0.069"/><path d=" M 19.693,26.304 L 19.416,26.118 M 13.935,24.45 L 16.816,24.786 M 17.758,22.705 L 16.816,24.786 M 16.046,28.927 L 17.148,25.438 M 17.529,25.668 L 17.148,25.438 M 16.816,24.786 L 17.148,25.438" stroke="#4C5950" stroke-width="0.069"/><path d=" M 16.283,29.465 L 14.115,30.31 L 11.859,25.434 L 13.967,24.459 L 16.283,29.465" fill="#D6A36E" stroke="#4C5950" stroke-width="0.069"/><path d=" M 13.929,24.455 L 13.373,25.597 M 11.847,25.421 L 13.373,25.597 M 14.114,30.311 L 14.698,28.444 M 13.373,25.597 L 14.698,28.444 M 16.257,29.44 L 14.698,28.444" stroke="#4C5950" stroke-width="0.069"/><path d=" M 14.115,30.31 L 11.247,31.429 L 10.264,30.81 L 9.329,30.938 L 8.5,27.17 L 8.441,27.015 L 11.859,25.434 L 14.115,30.31" fill="#D6A36E" stroke="#4C5950" stroke-width="0.069"/><path d=" M 8.485,27.036 L 8.641,27.079 M 9.363,30.935 L 10.674,28.491 M 14.123,30.367 L 11.423,28.557 M 11.868,25.431 L 10.858,27.512 M 8.641,27.079 L 10.858,27.512 M 11.423,28.557 L 11.058,28.08 M 10.858,27.512 L 11.058,28.08" stroke="#4C5950" stroke-width="0.069"/><path d=" M 24.521,18.256 L 28.345,21.295 L 23.193,25.89 L 22.029,25.656 L 19.993,26.767 L 18.269,23.605 L 24.521,18.256" fill="#D6A36E" stroke="#4C5950" stroke-width="0.069"/><path d=" M 20.035,26.751 L 20.811,23.382 M 18.31,23.581 L 20.811,23.382 M 20.811,23.382 L 21.753,22.684 M 24.516,18.261 L 24.578,20.597 M 28.351,21.294 L 24.578,20.597 M 21.753,22.684 L 22.528,22.382 M 24.578,20.597 L 22.528,22.382" stroke="#4C5950" stroke-width="0.069"/><path d=" M 22.592,17.555 L 24.017,18.688 L 21.711,20.661 L 19.257,17.793 L 16.556,17.825 L 16.528,15.479 L 22.592,17.555" fill="#D6A36E" stroke="#4C5950" stroke-width="0.069"/><path d=" M 16.548,15.467 L 17.515,16.51 M 16.542,17.811 L 17.515,16.51 M 17.515,16.51 L 19.546,16.964 M 24.001,18.689 L 21.976,18.307 M 21.709,20.707 L 21.855,18.31 M 19.546,16.964 L 21.855,18.31 M 21.976,18.307 L 21.855,18.31" stroke="#4C5950" stroke-width="0.069"/><path d=" M 21.27,-9.173 L 21.27,-8.573 L 20.215,-11.027 L 20.215,-11.627 L 21.27,-9.173" fill="#606661" stroke="#4C5950" stroke-width="0.069"/><path d=" M 26.854,-11.575 L 26.854,-10.975 L 21.27,-8.573 L 21.27,-9.173 L 26.854,-11.575" fill="#606661" stroke="#4C5950" stroke-width="0.069"/><path d=" M 31.887,-13.74 L 31.887,-13.14 L 26.854,-10.975 L 23.889,-15.021 L 23.889,-15.621 L 26.854,-11.575 L 31.887,-13.74" fill="#606661" stroke="#4C5950" stroke-width="0.069"/><path d=" M 26.854,-10.975 L 26.854,-11.575" stroke="#4C5950" stroke-width="0.069"/><path d=" M 30.049,-16.906 L 30.049,-16.306 L 29.918,-15.685 L 29.918,-16.285 L 30.049,-16.906" fill="#606661" stroke="#4C5950" stroke-width="0.069"/><path d=" M 28.45,-3.937 L 28.45,-3.337 L 26.963,-6.795 L 26.963,-7.395 L 28.45,-3.937" fill="#606661" stroke="#4C5950" stroke-width="0.069"/><path d=" M 35.417,-6.51 L 35.417,-5.91 L 28.45,-3.337 L 28.45,-3.937 L 35.417,-6.51" fill="#606661" stroke="#4C5950" stroke-width="0.069"/><path d=" M 34.344,-10.121 L 34.344,-9.521 L 26.963,-6.795 L 25.429,-10.362 L 25.429,-10.962 L 26.963,-7.395 L 34.344,-10.121" fill="#606661" stroke="#4C5950" stroke-width="0.069"/><path d=" M 26.963,-6.795 L 26.963,-7.395" stroke="#4C5950" stroke-width="0.069"/><path d=" M 27.013,-7.277 L 27.013,-6.677 L 23.432,-5.137 L 21.847,-8.821 L 21.847,-9.421 L 23.432,-5.737 L 27.013,-7.277" fill="#606661" stroke="#4C5950" stroke-width="0.069"/><path d=" M 23.432,-5.137 L 23.432,-5.737" stroke="#4C5950" stroke-width="0.069"/><path d=" M 28.309,-4.266 L 28.309,-3.666 L 24.76,-2.356 L 23.543,-5.185 L 23.543,-5.785 L 24.76,-2.956 L 28.309,-4.266" fill="#606661" stroke="#4C5950" stroke-width="0.069"/><path d=" M 24.76,-2.356 L 24.76,-2.956" stroke="#4C5950" stroke-width="0.069"/><path d=" M 26.854,-11.575 L 21.27,-9.173 L 20.215,-11.627 L 23.686,-15.898 L 26.854,-11.575" fill="#D6A36E" stroke="#4C5950" stroke-width="0.069"/><path d=" M 21.293,-9.15 L 22.149,-11.903 M 23.698,-15.867 L 23.608,-13.15 M 22.149,-11.903 L 23.608,-13.15 M 26.852,-11.581 L 23.608,-13.15" stroke="#4C5950" stroke-width="0.069"/><path d=" M 31.11,-14.052 L 31.887,-13.74 L 26.854,-11.575 L 23.889,-15.621 L 26.968,-19.41 L 30.049,-16.906 L 29.918,-16.285 L 31.11,-14.052" fill="#D6A36E" stroke="#4C5950" stroke-width="0.069"/><path d=" M 31.91,-13.713 L 30.798,-13.86 M 27.006,-19.441 L 27.34,-16.786 M 27.34,-16.786 L 27.314,-16.736 M 30.798,-13.86 L 27.753,-15.654 M 26.838,-11.574 L 27.753,-15.654 M 23.948,-15.653 L 27.28,-16.434 M 27.753,-15.654 L 27.28,-16.434 M 27.314,-16.736 L 27.28,-16.434" stroke="#4C5950" stroke-width="0.069"/><path d=" M 35.417,-6.51 L 28.45,-3.937 L 26.963,-7.395 L 34.114,-10.036 L 35.417,-6.51" fill="#D6A36E" stroke="#4C5950" stroke-width="0.069"/><path d=" M 26.974,-7.379 L 29.446,-6.938 M 28.434,-3.972 L 29.446,-6.938 M 29.446,-6.938 L 33.019,-8.261 M 35.405,-6.53 L 33.019,-8.261 M 34.13,-10.042 L 33.019,-8.261" stroke="#4C5950" stroke-width="0.069"/><path d=" M 26.963,-7.395 L 25.429,-10.962 L 32.853,-14.156 L 34.344,-10.121 L 26.963,-7.395" fill="#D6A36E" stroke="#4C5950" stroke-width="0.069"/><path d=" M 25.394,-11.037 L 28.082,-10.639 M 27.003,-7.412 L 28.082,-10.639 M 28.082,-10.639 L 31.625,-12.055 M 34.307,-10.108 L 31.625,-12.055 M 32.852,-14.14 L 31.625,-12.055" stroke="#4C5950" stroke-width="0.069"/><path d=" M 23.432,-5.737 L 21.847,-9.421 L 25.429,-10.962 L 27.013,-7.277 L 23.432,-5.737" fill="#D6A36E" stroke="#4C5950" stroke-width="0.069"/><path d=" M 26.986,-7.305 L 24.438,-8.966 M 23.428,-5.755 L 24.438,-8.966 M 25.428,-10.955 L 24.407,-9.039 M 21.85,-9.4 L 24.407,-9.039 M 24.438,-8.966 L 24.407,-9.039" stroke="#4C5950" stroke-width="0.069"/><path d=" M 24.76,-2.956 L 23.543,-5.785 L 27.013,-7.277 L 28.309,-4.266 L 24.76,-2.956" fill="#D6A36E" stroke="#4C5950" stroke-width="0.069"/><path d=" M 23.549,-5.774 L 25.629,-5.489 M 24.761,-2.955 L 25.629,-5.489 M 26.993,-7.303 L 26.16,-5.709 M 25.629,-5.489 L 26.16,-5.709 M 28.315,-4.24 L 26.16,-5.709" stroke="#4C5950" stroke-width="0.069"/><path d=" M 13.099,-7.413 L 19.091,-10.37 L 22.875,-1.574 L 21.745,-1.157 L 15.486,-2.575 L 13.099,-7.413" fill="#606661" stroke="#4C5950" stroke-width="0.069" stroke-linejoin="miter" stroke-linecap="round"/><path d=" M 16.302,-24.732 L 16.302,-24.132 L 12.24,-19.543 L 10.044,-21.487 L 10.044,-22.087 L 12.24,-20.143 L 16.302,-24.732" fill="#606661" stroke="#4C5950" stroke-width="0.069"/><path d=" M 12.24,-19.543 L 12.24,-20.143" stroke="#4C5950" stroke-width="0.069"/><path d=" M 21.223,-24.511 L 21.223,-23.911 L 18.997,-21.395 L 14.506,-25.956 L 14.506,-26.556 L 18.997,-21.995 L 21.223,-24.511" fill="#606661" stroke="#4C5950" stroke-width="0.069"/><path d=" M 18.997,-21.395 L 18.997,-21.995" stroke="#4C5950" stroke-width="0.069"/><path d=" M 19.701,-13.539 L 19.701,-12.939 L 15.109,-17.003 L 15.109,-17.603 L 19.701,-13.539" fill="#606661" stroke="#4C5950" stroke-width="0.069"/><path d=" M 22.782,-17.33 L 22.782,-16.73 L 19.701,-12.939 L 19.701,-13.539 L 22.782,-17.33" fill="#606661" stroke="#4C5950" stroke-width="0.069"/><path d=" M 22.807,-17.309 L 22.807,-16.709 L 19.989,-19 L 19.989,-19.6 L 22.807,-17.309" fill="#606661" stroke="#4C5950" stroke-width="0.069"/><path d=" M 25.646,-20.802 L 25.646,-20.202 L 22.807,-16.709 L 22.807,-17.309 L 25.646,-20.802" fill="#606661" stroke="#4C5950" stroke-width="0.069"/><path d=" M 22.645,-22.867 L 22.645,-22.267 L 19.989,-19 L 18.179,-20.471 L 18.179,-21.071 L 19.989,-19.6 L 22.645,-22.867" fill="#606661" stroke="#4C5950" stroke-width="0.069"/><path d=" M 19.989,-19 L 19.989,-19.6" stroke="#4C5950" stroke-width="0.069"/><path d=" M 14.236,-10.587 L 14.236,-9.987 L 12.726,-13.048 L 12.726,-13.648 L 14.236,-10.587" fill="#606661" stroke="#4C5950" stroke-width="0.069"/><path d=" M 19.55,-13.672 L 19.55,-13.072 L 18.921,-12.299 L 14.236,-9.987 L 14.236,-10.587 L 18.921,-12.899 L 19.55,-13.672" fill="#606661" stroke="#4C5950" stroke-width="0.069"/><path d=" M 18.921,-12.299 L 18.921,-12.899" stroke="#4C5950" stroke-width="0.069"/><path d=" M 12.036,-20.323 L 12.036,-19.723 L 9.622,-17.302 L 7.303,-19.616 L 7.303,-20.216 L 9.622,-17.902 L 12.036,-20.323" fill="#606661" stroke="#4C5950" stroke-width="0.069"/><path d=" M 9.622,-17.302 L 9.622,-17.902" stroke="#4C5950" stroke-width="0.069"/><path d=" M 9.462,-18.062 L 9.462,-17.462 L 3.082,-12.927 L 2.617,-13.869 L 2.617,-14.469 L 3.082,-13.527 L 9.462,-18.062" fill="#606661" stroke="#4C5950" stroke-width="0.069"/><path d=" M 3.082,-12.927 L 3.082,-13.527" stroke="#4C5950" stroke-width="0.069"/><path d=" M 9.877,-7.965 L 9.877,-7.365 L 6.289,-5.595 L 2.778,-12.711 L 2.778,-13.311 L 6.289,-6.195 L 9.877,-7.965" fill="#606661" stroke="#4C5950" stroke-width="0.069"/><path d=" M 6.289,-5.595 L 6.289,-6.195" stroke="#4C5950" stroke-width="0.069"/><path d=" M 9.79,-8.11 L 9.79,-7.51 L 7.989,-10.531 L 7.989,-11.131 L 9.79,-8.11" fill="#606661" stroke="#4C5950" stroke-width="0.069"/><path d=" M 14.348,-10.359 L 14.348,-9.759 L 9.79,-7.51 L 9.79,-8.11 L 14.348,-10.359" fill="#606661" stroke="#4C5950" stroke-width="0.069"/><path d=" M 10.42,-22.464 L 14.822,-26.235 L 16.302,-24.732 L 12.24,-20.143 L 10.044,-22.087 L 10.42,-22.464" fill="#D6A36E" stroke="#4C5950" stroke-width="0.069"/><path d=" M 10.041,-22.086 L 10.745,-22.266 M 14.793,-26.195 L 14.751,-25.03 M 16.358,-24.705 L 14.751,-25.03 M 10.745,-22.266 L 12.123,-22.555 M 12.231,-20.149 L 12.123,-22.555 M 14.751,-25.03 L 12.123,-22.555" stroke="#4C5950" stroke-width="0.069"/><path d=" M 18.505,-26.72 L 21.223,-24.511 L 18.997,-21.995 L 14.506,-26.556 L 15.486,-27.395 L 17.122,-26.466 L 18.505,-26.72" fill="#D6A36E" stroke="#4C5950" stroke-width="0.069"/><path d=" M 14.529,-26.603 L 15.56,-26.784 M 15.486,-27.397 L 15.56,-26.784 M 15.56,-26.784 L 16.976,-25.778 M 16.976,-25.778 L 18.107,-25.619 M 18.107,-25.619 L 18.966,-24.851 M 19.029,-22.052 L 18.966,-24.851 M 21.197,-24.503 L 18.966,-24.851" stroke="#4C5950" stroke-width="0.069"/><path d=" M 22.782,-17.33 L 19.701,-13.539 L 15.109,-17.603 L 18.179,-21.071 L 22.782,-17.33" fill="#D6A36E" stroke="#4C5950" stroke-width="0.069"/><path d=" M 15.067,-17.581 L 18.508,-18.577 M 18.26,-21.05 L 18.508,-18.577 M 22.834,-17.388 L 19.428,-17.819 M 18.508,-18.577 L 19.428,-17.819 M 19.744,-13.536 L 19.428,-17.819" stroke="#4C5950" stroke-width="0.069"/><path d=" M 25.646,-20.802 L 22.807,-17.309 L 19.989,-19.6 L 22.828,-23.092 L 25.646,-20.802" fill="#D6A36E" stroke="#4C5950" stroke-width="0.069"/><path d=" M 22.744,-17.341 L 22.517,-20.442 M 19.985,-19.601 L 22.517,-20.442 M 25.695,-20.818 L 23.104,-21.142 M 22.827,-23.025 L 23.104,-21.142 M 22.517,-20.442 L 23.104,-21.142" stroke="#4C5950" stroke-width="0.069"/><path d=" M 18.179,-21.071 L 20.972,-24.227 L 22.645,-22.867 L 19.989,-19.6 L 18.179,-21.071" fill="#D6A36E" stroke="#4C5950" stroke-width="0.069"/><path d=" M 20.955,-24.217 L 21.113,-23.078 M 22.715,-22.904 L 21.113,-23.078 M 21.113,-23.078 L 19.849,-21.595 M 18.187,-21.067 L 19.849,-21.595 M 20.02,-19.592 L 19.849,-21.595" stroke="#4C5950" stroke-width="0.069"/><path d=" M 18.921,-12.899 L 14.236,-10.587 L 12.726,-13.648 L 16.377,-16.481 L 19.55,-13.672 L 18.921,-12.899" fill="#D6A36E" stroke="#4C5950" stroke-width="0.069"/><path d=" M 19.552,-13.698 L 18.383,-13.861 M 12.723,-13.679 L 15.086,-13.74 M 14.201,-10.591 L 15.086,-13.74 M 18.383,-13.861 L 16.3,-14.535 M 16.391,-16.486 L 16.3,-14.535 M 15.086,-13.74 L 16.3,-14.535" stroke="#4C5950" stroke-width="0.069"/><path d=" M 9.622,-17.902 L 7.303,-20.216 L 9.579,-22.498 L 12.036,-20.323 L 9.622,-17.902" fill="#D6A36E" stroke="#4C5950" stroke-width="0.069"/><path d=" M 7.255,-20.173 L 9.58,-20.734 M 9.584,-17.923 L 9.58,-20.734 M 9.597,-22.507 L 9.653,-20.806 M 9.58,-20.734 L 9.653,-20.806 M 12.036,-20.309 L 9.653,-20.806" stroke="#4C5950" stroke-width="0.069"/><path d=" M 2.617,-14.469 L 7.827,-19.693 L 9.462,-18.062 L 3.082,-13.527 L 2.617,-14.469" fill="#D6A36E" stroke="#4C5950" stroke-width="0.069"/><path d=" M 3.122,-13.532 L 3.316,-14.558 M 2.615,-14.472 L 3.316,-14.558 M 7.86,-19.691 L 7.852,-18.551 M 3.316,-14.558 L 7.852,-18.551 M 9.463,-18.061 L 7.852,-18.551" stroke="#4C5950" stroke-width="0.069"/><path d=" M 6.289,-6.195 L 2.778,-13.311 L 5.525,-15.263 L 9.877,-7.965 L 6.289,-6.195" fill="#D6A36E" stroke="#4C5950" stroke-width="0.069"/><path d=" M 2.782,-13.271 L 5.01,-13.308 M 5.528,-15.265 L 5.01,-13.308 M 9.925,-7.943 L 7.183,-9.399 M 5.01,-13.308 L 7.183,-9.399 M 6.306,-6.177 L 7.183,-9.399" stroke="#4C5950" stroke-width="0.069"/><path d=" M 14.348,-10.359 L 9.79,-8.11 L 7.989,-11.131 L 12.609,-13.885 L 14.348,-10.359" fill="#D6A36E" stroke="#4C5950" stroke-width="0.069"/><path d=" M 7.952,-11.106 L 10.499,-11.092 M 9.813,-8.087 L 10.499,-11.092 M 14.349,-10.332 L 11.813,-11.824 M 12.608,-13.868 L 11.813,-11.824 M 10.499,-11.092 L 11.813,-11.824" stroke="#4C5950" stroke-width="0.069"/></g><g><path d=" M 0,0"/></g><g><path d=" M 0,0"/></g><g><path d=" M 0,0"/><path d=" M -26.393,34.691 L -26.393,35.291 L -27.284,30.866 L -27.284,30.266 L -26.393,34.691" fill="#606661" stroke="#4C5950" stroke-width="0.069"/><path d=" M -18.462,31.03 L -18.462,31.63 L -19.402,34.13 L -20.299,34.064 L -26.393,35.291 L -26.393,34.691 L -20.299,33.464 L -19.402,33.53 L -18.462,31.03" fill="#606661" stroke="#4C5950" stroke-width="0.069"/><path d=" M -19.402,34.13 L -19.402,33.53 M -20.299,34.064 L -20.299,33.464" stroke="#4C5950" stroke-width="0.069"/><path d=" M -20.299,33.464 L -26.393,34.691 L -27.284,30.266 L -22.864,29.376 L -18.462,31.03 L -19.402,33.53 L -20.299,33.464" fill="#D6A36E" stroke="#4C5950" stroke-width="0.069"/><path d=" M -19.404,33.525 L -20.389,31.515 M -18.472,31.011 L -20.457,31.404 M -27.285,30.267 L -24.628,31.271 M -26.376,34.649 L -24.628,31.271 M -24.628,31.271 L -23.048,30.955 M -20.457,31.404 L -23.048,30.955" stroke="#4C5950" stroke-width="0.069"/></g><g><path d=" M 0,0"/></g><g><path d=" M 0,0"/></g><g><path d=" M 0,0"/></g><g><path d=" M 0,0"/><path d=" M -22.945,-47.305 L -22.945,-46.705 L -23.974,-48.546 L -23.974,-49.146 L -22.945,-47.305" fill="#606661" stroke="#4C5950" stroke-width="0.069"/><path d=" M -19.412,-48.957 L -19.412,-48.357 L -22.945,-46.705 L -22.945,-47.305 L -19.412,-48.957" fill="#606661" stroke="#4C5950" stroke-width="0.069"/><path d=" M -11.14,-60.522 L -11.14,-59.922 L -14.019,-58.411 L -15.14,-60.012 L -15.14,-60.612 L -14.019,-59.011 L -11.14,-60.522" fill="#606661" stroke="#4C5950" stroke-width="0.069"/><path d=" M -14.019,-58.411 L -14.019,-59.011" stroke="#4C5950" stroke-width="0.069"/><path d=" M -3.72,-41.145 L -3.72,-40.545 L -6.425,-39.223 L -8.649,-43.772 L -8.649,-44.372 L -6.425,-39.823 L -3.72,-41.145" fill="#606661" stroke="#4C5950" stroke-width="0.069"/><path d=" M -6.425,-39.223 L -6.425,-39.823" stroke="#4C5950" stroke-width="0.069"/><path d=" M -1.884,-37.952 L -1.884,-37.352 L -3.215,-36.244 L -3.464,-34.863 L -4.987,-33.975 L -7.334,-38.778 L -7.334,-39.378 L -4.987,-34.575 L -3.464,-35.463 L -3.215,-36.844 L -1.884,-37.952" fill="#606661" stroke="#4C5950" stroke-width="0.069"/><path d=" M -3.215,-36.244 L -3.215,-36.844 M -3.464,-34.863 L -3.464,-35.463 M -4.987,-33.975 L -4.987,-34.575" stroke="#4C5950" stroke-width="0.069"/><path d=" M -8.883,-32.306 L -8.883,-31.706 L -11.374,-36.804 L -11.374,-37.404 L -8.883,-32.306" fill="#606661" stroke="#4C5950" stroke-width="0.069"/><path d=" M -4.987,-34.575 L -4.987,-33.975 L -8.883,-31.706 L -8.883,-32.306 L -4.987,-34.575" fill="#606661" stroke="#4C5950" stroke-width="0.069"/><path d=" M -8.883,-32.306 L -8.883,-31.706 L -9.464,-31.367 L -10.11,-32.099 L -14.168,-32.712 L -14.88,-32.277 L -15.372,-33.158 L -15.372,-33.758 L -14.88,-32.877 L -14.168,-33.312 L -10.11,-32.699 L -9.464,-31.967 L -8.883,-32.306" fill="#606661" stroke="#4C5950" stroke-width="0.069"/><path d=" M -9.464,-31.367 L -9.464,-31.967 M -10.11,-32.099 L -10.11,-32.699 M -14.168,-32.712 L -14.168,-33.312 M -14.88,-32.277 L -14.88,-32.877" stroke="#4C5950" stroke-width="0.069"/><path d=" M -17.494,-46.183 L -17.494,-45.583 L -20.588,-44.136 L -22.215,-47.046 L -22.215,-47.646 L -20.588,-44.736 L -17.494,-46.183" fill="#606661" stroke="#4C5950" stroke-width="0.069"/><path d=" M -20.588,-44.136 L -20.588,-44.736" stroke="#4C5950" stroke-width="0.069"/><path d=" M -19.412,-48.957 L -22.945,-47.305 L -23.974,-49.146 L -20.68,-51.257 L -19.412,-48.957" fill="#D6A36E" stroke="#4C5950" stroke-width="0.069"/><path d=" M -22.942,-47.339 L -22.464,-49.161 M -23.967,-49.172 L -22.464,-49.161 M -19.405,-48.935 L -21.115,-49.917 M -22.464,-49.161 L -21.115,-49.917 M -20.662,-51.239 L -21.115,-49.917" stroke="#4C5950" stroke-width="0.069"/><path d=" M -11.901,-62.377 L -11.14,-60.522 L -14.019,-59.011 L -15.14,-60.612 L -11.901,-62.377" fill="#D6A36E" stroke="#4C5950" stroke-width="0.069"/><path d=" M -14.014,-59.033 L -13.705,-60.619 M -15.15,-60.623 L -13.705,-60.619 M -11.932,-62.378 L -12.431,-61.296 M -13.705,-60.619 L -12.431,-61.296 M -11.143,-60.485 L -12.431,-61.296" stroke="#4C5950" stroke-width="0.069"/><path d=" M -5.646,-45.84 L -3.72,-41.145 L -6.425,-39.823 L -8.649,-44.372 L -5.646,-45.84" fill="#D6A36E" stroke="#4C5950" stroke-width="0.069"/><path d=" M -3.736,-41.138 L -5.725,-42.414 M -6.449,-39.77 L -5.725,-42.414 M -5.725,-42.414 L -6.476,-44.149 M -5.615,-45.848 L -6.476,-44.149 M -8.643,-44.355 L -6.476,-44.149" stroke="#4C5950" stroke-width="0.069"/><path d=" M -7.334,-39.378 L -3.281,-41.359 L -1.884,-37.952 L -3.215,-36.844 L -3.464,-35.463 L -4.987,-34.575 L -7.334,-39.378" fill="#D6A36E" stroke="#4C5950" stroke-width="0.069"/><path d=" M -5.001,-34.54 L -4.509,-36.541 M -4.509,-36.541 L -4.713,-38.252 M -1.881,-37.969 L -4.352,-39.239 M -3.304,-41.338 L -4.352,-39.239 M -7.334,-39.388 L -4.562,-39.113 M -4.713,-38.252 L -4.562,-39.113 M -4.352,-39.239 L -4.562,-39.113" stroke="#4C5950" stroke-width="0.069"/><path d=" M -4.987,-34.575 L -8.883,-32.306 L -11.374,-37.404 L -7.334,-39.378 L -4.987,-34.575" fill="#D6A36E" stroke="#4C5950" stroke-width="0.069"/><path d=" M -11.376,-37.421 L -8.368,-37.129 M -7.334,-39.374 L -8.368,-37.129 M -8.869,-32.296 L -7.919,-36.213 M -4.988,-34.587 L -7.919,-36.213 M -8.368,-37.129 L -7.919,-36.213" stroke="#4C5950" stroke-width="0.069"/><path d=" M -10.707,-36.038 L -8.883,-32.306 L -9.464,-31.967 L -10.11,-32.699 L -14.168,-33.312 L -14.88,-32.877 L -15.372,-33.758 L -10.707,-36.038" fill="#D6A36E" stroke="#4C5950" stroke-width="0.069"/><path d=" M -9.462,-31.939 L -9.39,-32.58 M -8.887,-32.308 L -9.39,-32.58 M -14.928,-32.817 L -14.704,-33.717 M -15.339,-33.792 L -14.704,-33.717 M -14.704,-33.717 L -14.303,-33.935 M -9.39,-32.58 L -9.86,-33.323 M -14.303,-33.935 L -11.328,-34.684 M -9.86,-33.323 L -11.328,-34.684 M -10.702,-36.039 L -11.328,-34.684" stroke="#4C5950" stroke-width="0.069"/><path d=" M -20.588,-44.736 L -22.215,-47.646 L -18.903,-49.195 L -17.494,-46.183 L -20.588,-44.736" fill="#D6A36E" stroke="#4C5950" stroke-width="0.069"/><path d=" M -18.909,-49.197 L -19.724,-47.544 M -17.496,-46.183 L -19.724,-47.544 M -20.569,-44.729 L -19.886,-47.469 M -22.262,-47.674 L -19.886,-47.469 M -19.724,-47.544 L -19.886,-47.469" stroke="#4C5950" stroke-width="0.069"/></g><g><path d=" M 0,0"/><path d=" M -36.325,-35.17 L -36.325,-34.57 L -38.5,-37.561 L -38.5,-38.161 L -36.325,-35.17" fill="#606661" stroke="#4C5950" stroke-width="0.069"/><path d=" M -33.957,-36.905 L -33.957,-36.305 L -36.325,-34.57 L -36.325,-35.17 L -33.957,-36.905" fill="#606661" stroke="#4C5950" stroke-width="0.069"/><path d=" M -32.235,-42.753 L -32.235,-42.153 L -38.5,-37.561 L -40.472,-40.272 L -40.472,-40.872 L -38.5,-38.161 L -32.235,-42.753" fill="#606661" stroke="#4C5950" stroke-width="0.069"/><path d=" M -38.5,-37.561 L -38.5,-38.161" stroke="#4C5950" stroke-width="0.069"/><path d=" M -24.745,-45.152 L -24.745,-44.552 L -27.136,-43.017 L -29.705,-46.235 L -29.705,-46.835 L -27.136,-43.617 L -24.745,-45.152" fill="#606661" stroke="#4C5950" stroke-width="0.069"/><path d=" M -27.136,-43.017 L -27.136,-43.617" stroke="#4C5950" stroke-width="0.069"/><path d=" M -26.566,-48.942 L -26.566,-48.342 L -29.705,-46.235 L -31.369,-48.319 L -31.369,-48.919 L -29.705,-46.835 L -26.566,-48.942" fill="#606661" stroke="#4C5950" stroke-width="0.069"/><path d=" M -29.705,-46.235 L -29.705,-46.835" stroke="#4C5950" stroke-width="0.069"/><path d=" M -19.685,-37.374 L -19.685,-36.774 L -23.092,-34.651 L -24.462,-36.851 L -24.462,-37.451 L -23.092,-35.251 L -19.685,-37.374" fill="#606661" stroke="#4C5950" stroke-width="0.069"/><path d=" M -23.092,-34.651 L -23.092,-35.251" stroke="#4C5950" stroke-width="0.069"/><path d=" M -18.726,-34.886 L -18.726,-34.286 L -21.708,-32.429 L -23.092,-34.651 L -23.092,-35.251 L -21.708,-33.029 L -18.726,-34.886" fill="#606661" stroke="#4C5950" stroke-width="0.069"/><path d=" M -21.708,-32.429 L -21.708,-33.029" stroke="#4C5950" stroke-width="0.069"/><path d=" M -17.633,-32.959 L -17.633,-32.359 L -22.397,-29.391 L -23.568,-31.271 L -23.568,-31.871 L -22.397,-29.991 L -17.633,-32.959" fill="#606661" stroke="#4C5950" stroke-width="0.069"/><path d=" M -22.397,-29.391 L -22.397,-29.991" stroke="#4C5950" stroke-width="0.069"/><path d=" M -20.412,-26.804 L -20.412,-26.204 L -22.397,-29.391 L -22.397,-29.991 L -20.412,-26.804" fill="#606661" stroke="#4C5950" stroke-width="0.069"/><path d=" M -17.442,-32.487 L -17.442,-31.887 L -19.047,-30.55 L -19.761,-26.583 L -20.412,-26.204 L -20.412,-26.804 L -19.761,-27.183 L -19.047,-31.15 L -17.442,-32.487" fill="#606661" stroke="#4C5950" stroke-width="0.069"/><path d=" M -19.047,-30.55 L -19.047,-31.15 M -19.761,-26.583 L -19.761,-27.183" stroke="#4C5950" stroke-width="0.069"/><path d=" M -23.462,-24.625 L -23.462,-24.025 L -24.389,-25.512 L -24.389,-26.112 L -23.462,-24.625" fill="#606661" stroke="#4C5950" stroke-width="0.069"/><path d=" M -20.228,-26.509 L -20.228,-25.909 L -23.462,-24.025 L -23.462,-24.625 L -20.228,-26.509" fill="#606661" stroke="#4C5950" stroke-width="0.069"/><path d=" M -23.565,-24.79 L -23.565,-24.19 L -24.642,-23.562 L -24.775,-23.677 L -27.305,-23.722 L -27.683,-23.416 L -28.606,-24.686 L -28.606,-25.286 L -27.683,-24.016 L -27.305,-24.322 L -24.775,-24.277 L -24.642,-24.162 L -23.565,-24.79" fill="#606661" stroke="#4C5950" stroke-width="0.069"/><path d=" M -24.642,-23.562 L -24.642,-24.162 M -24.775,-23.677 L -24.775,-24.277 M -27.305,-23.722 L -27.305,-24.322 M -27.683,-23.416 L -27.683,-24.016" stroke="#4C5950" stroke-width="0.069"/><path d=" M -33.957,-36.905 L -36.325,-35.17 L -38.5,-38.161 L -36.143,-39.888 L -33.957,-36.905" fill="#D6A36E" stroke="#4C5950" stroke-width="0.069"/><path d=" M -38.525,-38.158 L -36.478,-38.329 M -36.17,-39.881 L -36.478,-38.329 M -36.345,-35.18 L -36.023,-37.714 M -33.958,-36.908 L -36.023,-37.714 M -36.478,-38.329 L -36.023,-37.714" stroke="#4C5950" stroke-width="0.069"/><path d=" M -38.5,-38.161 L -40.472,-40.872 L -34.893,-46.38 L -32.235,-42.753 L -38.5,-38.161" fill="#D6A36E" stroke="#4C5950" stroke-width="0.069"/><path d=" M -40.485,-40.862 L -38.131,-41.261 M -38.537,-38.132 L -38.131,-41.261 M -32.262,-42.734 L -35.166,-43.889 M -38.131,-41.261 L -35.166,-43.889 M -34.9,-46.395 L -35.166,-43.889" stroke="#4C5950" stroke-width="0.069"/><path d=" M -26.783,-48.797 L -24.745,-45.152 L -27.136,-43.617 L -29.705,-46.835 L -26.783,-48.797" fill="#D6A36E" stroke="#4C5950" stroke-width="0.069"/><path d=" M -24.757,-45.104 L -26.812,-46.166 M -27.157,-43.633 L -26.812,-46.166 M -26.768,-48.791 L -27.357,-47.007 M -26.812,-46.166 L -27.357,-47.007 M -29.768,-46.842 L -27.357,-47.007" stroke="#4C5950" stroke-width="0.069"/><path d=" M -28.265,-51.983 L -26.566,-48.942 L -29.705,-46.835 L -31.369,-48.919 L -28.265,-51.983" fill="#D6A36E" stroke="#4C5950" stroke-width="0.069"/><path d=" M -31.307,-48.897 L -29.391,-49.259 M -29.712,-46.837 L -29.391,-49.259 M -28.244,-51.978 L -28.606,-49.936 M -29.391,-49.259 L -28.606,-49.936 M -26.567,-48.915 L -28.606,-49.936" stroke="#4C5950" stroke-width="0.069"/><path d=" M -23.092,-35.251 L -24.462,-37.451 L -20.95,-39.638 L -19.685,-37.374 L -23.092,-35.251" fill="#D6A36E" stroke="#4C5950" stroke-width="0.069"/><path d=" M -23.131,-35.203 L -22.696,-37.416 M -24.417,-37.402 L -22.696,-37.416 M -19.653,-37.403 L -21.385,-38.254 M -22.696,-37.416 L -21.385,-38.254 M -20.951,-39.631 L -21.385,-38.254" stroke="#4C5950" stroke-width="0.069"/><path d=" M -20.005,-37.174 L -18.726,-34.886 L -21.708,-33.029 L -23.092,-35.251 L -20.005,-37.174" fill="#D6A36E" stroke="#4C5950" stroke-width="0.069"/><path d=" M -18.73,-34.883 L -20.48,-35.771 M -20.004,-37.177 L -20.48,-35.771 M -21.682,-33.034 L -21.272,-35.276 M -20.48,-35.771 L -21.272,-35.276 M -23.087,-35.252 L -21.272,-35.276" stroke="#4C5950" stroke-width="0.069"/><path d=" M -23.568,-31.871 L -18.714,-34.894 L -17.633,-32.959 L -22.397,-29.991 L -23.568,-31.871" fill="#D6A36E" stroke="#4C5950" stroke-width="0.069"/><path d=" M -18.694,-34.874 L -19.087,-33.707 M -17.626,-32.968 L -19.087,-33.707 M -22.39,-29.996 L -22.035,-31.87 M -19.087,-33.707 L -22.035,-31.87 M -23.536,-31.858 L -22.035,-31.87" stroke="#4C5950" stroke-width="0.069"/><path d=" M -19.761,-27.183 L -20.412,-26.804 L -22.397,-29.991 L -17.687,-32.925 L -17.442,-32.487 L -19.047,-31.15 L -19.761,-27.183" fill="#D6A36E" stroke="#4C5950" stroke-width="0.069"/><path d=" M -17.453,-32.497 L -17.742,-32.628 M -17.656,-32.872 L -17.742,-32.628 M -17.742,-32.628 L -19.401,-31.486 M -20.419,-26.81 L -20.227,-27.732 M -22.385,-29.99 L -20.619,-29.994 M -19.401,-31.486 L -20.619,-29.994 M -20.227,-27.732 L -20.619,-29.994" stroke="#4C5950" stroke-width="0.069"/><path d=" M -20.228,-26.509 L -23.462,-24.625 L -24.389,-26.112 L -21.213,-28.09 L -20.228,-26.509" fill="#D6A36E" stroke="#4C5950" stroke-width="0.069"/><path d=" M -23.496,-24.622 L -23.2,-26.093 M -24.398,-26.077 L -23.2,-26.093 M -21.214,-28.095 L -21.496,-27.138 M -23.2,-26.093 L -21.496,-27.138 M -20.212,-26.518 L -21.496,-27.138" stroke="#4C5950" stroke-width="0.069"/><path d=" M -27.683,-24.016 L -28.606,-25.286 L -25.197,-27.41 L -23.565,-24.79 L -24.642,-24.162 L -24.775,-24.277 L -27.305,-24.322 L -27.683,-24.016" fill="#D6A36E" stroke="#4C5950" stroke-width="0.069"/><path d=" M -24.676,-24.165 L -24.568,-24.929 M -27.688,-24.016 L -27.514,-25.3 M -28.612,-25.299 L -27.499,-25.338 M -23.565,-24.787 L -24.646,-25.33 M -25.177,-27.442 L -25.611,-26.057 M -27.499,-25.338 L -25.611,-26.057 M -24.646,-25.33 L -25.611,-26.057" stroke="#4C5950" stroke-width="0.069"/></g><g><path d=" M 0,0"/></g><g><path d=" M 0,0"/><g><path d=" M 0,0"/><path d=" M -29.056,-34.428 L -29.302,-34.18 L -29.088,-34.007 L -29.053,-33.734 L -29.132,-33.47 L -29.372,-33.334 L -29.537,-33.114 L -29.809,-33.07 L -30.076,-33.139 L -30.22,-33.374 L -30.532,-33.231 L -30.836,-33.388 L -31.053,-33.653 L -30.979,-33.988 L -31.197,-33.962 L -31.388,-34.071 L -31.521,-34.246 L -31.524,-34.466 L -31.581,-34.678 L -31.5,-34.883 L -31.346,-35.04 L -31.129,-35.074 L -31.211,-35.291 L -31.141,-35.512 L -30.99,-35.688 L -30.762,-35.733 L -30.556,-35.84 L -30.328,-35.796 L -30.135,-35.666 L -30.065,-35.445 L -29.941,-35.665 L -29.704,-35.75 L -29.452,-35.733 L -29.273,-35.555 L -29.044,-35.448 L -28.941,-35.218 L -28.939,-34.965 L -29.103,-34.773 L -29.056,-34.428" stroke="#4C5950" stroke-width="0.138"/><path d=" M -29.056,-34.428 L -29.302,-34.18 L -29.088,-34.007 L -29.053,-33.734 L -29.132,-33.47 L -29.372,-33.334 L -29.537,-33.114 L -29.809,-33.07 L -30.076,-33.139 L -30.22,-33.374 L -30.532,-33.231 L -30.836,-33.388 L -31.053,-33.653 L -30.979,-33.988 L -31.197,-33.962 L -31.388,-34.071 L -31.521,-34.246 L -31.524,-34.466 L -31.581,-34.678 L -31.5,-34.883 L -31.346,-35.04 L -31.129,-35.074 L -31.211,-35.291 L -31.141,-35.512 L -30.99,-35.688 L -30.762,-35.733 L -30.556,-35.84 L -30.328,-35.796 L -30.135,-35.666 L -30.065,-35.445 L -29.941,-35.665 L -29.704,-35.75 L -29.452,-35.733 L -29.273,-35.555 L -29.044,-35.448 L -28.941,-35.218 L -28.939,-34.965 L -29.103,-34.773 L -29.056,-34.428" fill="#667755"/></g></g><g><path d=" M 0,0"/><path d=" M -32.334,10.541 L -32.032,-4.89" stroke="#4C5950" stroke-width="1.969"/><path d=" M -32.334,10.541 L -32.032,-4.89" stroke="#606661" stroke-width="1.831"/><path d=" M -32.032,-4.89 L -25.944,-19.278" stroke="#4C5950" stroke-width="1.969"/><path d=" M -32.032,-4.89 L -25.944,-19.278" stroke="#606661" stroke-width="1.831"/><path d=" M -25.944,-19.278 L -15.486,-25.37" stroke="#4C5950" stroke-width="1.969"/><path d=" M -25.944,-19.278 L -15.486,-25.37" stroke="#606661" stroke-width="1.831"/><path d=" M -10.475,-28.29 L -0.017,-34.382" stroke="#4C5950" stroke-width="1.969"/><path d=" M -10.475,-28.29 L -0.017,-34.382" stroke="#606661" stroke-width="1.831"/><path d=" M -0.017,-34.382 L 17.963,-29.976" stroke="#4C5950" stroke-width="1.969"/><path d=" M -0.017,-34.382 L 17.963,-29.976" stroke="#606661" stroke-width="1.831"/><path d=" M 17.963,-29.976 L 33.85,-17.063" stroke="#4C5950" stroke-width="1.969"/><path d=" M 17.963,-29.976 L 33.85,-17.063" stroke="#606661" stroke-width="1.831"/><path d=" M 33.85,-17.063 L 40.529,1.02" stroke="#4C5950" stroke-width="1.969"/><path d=" M 33.85,-17.063 L 40.529,1.02" stroke="#606661" stroke-width="1.831"/><path d=" M 40.529,1.02 L 35.315,18.56" stroke="#4C5950" stroke-width="1.969"/><path d=" M 40.529,1.02 L 35.315,18.56" stroke="#606661" stroke-width="1.831"/><path d=" M 35.315,18.56 L 22.584,29.914" stroke="#4C5950" stroke-width="1.969"/><path d=" M 35.315,18.56 L 22.584,29.914" stroke="#606661" stroke-width="1.831"/><path d=" M 22.584,29.914 L 9.481,35.026" stroke="#4C5950" stroke-width="1.969"/><path d=" M 22.584,29.914 L 9.481,35.026" stroke="#606661" stroke-width="1.831"/><path d=" M 9.481,35.026 L -6.136,34.488" stroke="#4C5950" stroke-width="1.969"/><path d=" M 9.481,35.026 L -6.136,34.488" stroke="#606661" stroke-width="1.831"/><path d=" M -6.136,34.488 L -19.913,25.216" stroke="#4C5950" stroke-width="1.969"/><path d=" M -6.136,34.488 L -19.913,25.216" stroke="#606661" stroke-width="1.831"/><path d=" M -24.084,21.296 L -32.334,10.541" stroke="#4C5950" stroke-width="1.969"/><path d=" M -24.084,21.296 L -32.334,10.541" stroke="#606661" stroke-width="1.831"/><path d=" M 3.218,9.52 L 5.426,21.459" stroke="#4C5950" stroke-width="1.969"/><path d=" M 3.218,9.52 L 5.426,21.459" stroke="#606661" stroke-width="1.831"/><path d=" M 5.426,21.459 L -17.546,21.392" stroke="#4C5950" stroke-width="1.969"/><path d=" M 5.426,21.459 L -17.546,21.392" stroke="#606661" stroke-width="1.831"/><path d=" M -17.546,21.392 L -16.364,0.812" stroke="#4C5950" stroke-width="1.969"/><path d=" M -17.546,21.392 L -16.364,0.812" stroke="#606661" stroke-width="1.831"/><path d=" M -16.364,0.812 L -0.082,5.816" stroke="#4C5950" stroke-width="1.969"/><path d=" M -16.364,0.812 L -0.082,5.816" stroke="#606661" stroke-width="1.831"/><g transform="translate(-32.334 10.541)"><path d=" M 0,0"/><path d=" M 1.9,0 Q 1.9,0.787 1.344,1.344 Q 0.787,1.9 0,1.9 L 0,1.9 Q -0.787,1.9 -1.344,1.344 Q -1.9,0.787 -1.9,0 L -1.9,0 Q -1.9,-0.787 -1.344,-1.344 Q -0.787,-1.9 0,-1.9 L 0,-1.9 Q 0.787,-1.9 1.344,-1.344 Q 1.9,-0.787 1.9,0 L 1.9,0" fill="#606661" stroke="#4C5950" stroke-width="0.069"/></g><g transform="translate(-32.032 -4.89)"><path d=" M 0,0"/><path d=" M 1.9,0 Q 1.9,0.787 1.344,1.344 Q 0.787,1.9 0,1.9 L 0,1.9 Q -0.787,1.9 -1.344,1.344 Q -1.9,0.787 -1.9,0 L -1.9,0 Q -1.9,-0.787 -1.344,-1.344 Q -0.787,-1.9 0,-1.9 L 0,-1.9 Q 0.787,-1.9 1.344,-1.344 Q 1.9,-0.787 1.9,0 L 1.9,0" fill="#606661" stroke="#4C5950" stroke-width="0.069"/></g><g transform="translate(-25.944 -19.278)"><path d=" M 0,0"/><path d=" M 1.9,0 Q 1.9,0.787 1.344,1.344 Q 0.787,1.9 0,1.9 L 0,1.9 Q -0.787,1.9 -1.344,1.344 Q -1.9,0.787 -1.9,0 L -1.9,0 Q -1.9,-0.787 -1.344,-1.344 Q -0.787,-1.9 0,-1.9 L 0,-1.9 Q 0.787,-1.9 1.344,-1.344 Q 1.9,-0.787 1.9,0 L 1.9,0" fill="#606661" stroke="#4C5950" stroke-width="0.069"/></g><g transform="translate(-0.017 -34.382)"><path d=" M 0,0"/><path d=" M 1.9,0 Q 1.9,0.787 1.344,1.344 Q 0.787,1.9 0,1.9 L 0,1.9 Q -0.787,1.9 -1.344,1.344 Q -1.9,0.787 -1.9,0 L -1.9,0 Q -1.9,-0.787 -1.344,-1.344 Q -0.787,-1.9 0,-1.9 L 0,-1.9 Q 0.787,-1.9 1.344,-1.344 Q 1.9,-0.787 1.9,0 L 1.9,0" fill="#606661" stroke="#4C5950" stroke-width="0.069"/></g><g transform="translate(17.963 -29.976)"><path d=" M 0,0"/><path d=" M 1.9,0 Q 1.9,0.787 1.344,1.344 Q 0.787,1.9 0,1.9 L 0,1.9 Q -0.787,1.9 -1.344,1.344 Q -1.9,0.787 -1.9,0 L -1.9,0 Q -1.9,-0.787 -1.344,-1.344 Q -0.787,-1.9 0,-1.9 L 0,-1.9 Q 0.787,-1.9 1.344,-1.344 Q 1.9,-0.787 1.9,0 L 1.9,0" fill="#606661" stroke="#4C5950" stroke-width="0.069"/></g><g transform="translate(33.85 -17.063)"><path d=" M 0,0"/><path d=" M 1.9,0 Q 1.9,0.787 1.344,1.344 Q 0.787,1.9 0,1.9 L 0,1.9 Q -0.787,1.9 -1.344,1.344 Q -1.9,0.787 -1.9,0 L -1.9,0 Q -1.9,-0.787 -1.344,-1.344 Q -0.787,-1.9 0,-1.9 L 0,-1.9 Q 0.787,-1.9 1.344,-1.344 Q 1.9,-0.787 1.9,0 L 1.9,0" fill="#606661" stroke="#4C5950" stroke-width="0.069"/></g><g transform="translate(40.529 1.02)"><path d=" M 0,0"/><path d=" M 1.9,0 Q 1.9,0.787 1.344,1.344 Q 0.787,1.9 0,1.9 L 0,1.9 Q -0.787,1.9 -1.344,1.344 Q -1.9,0.787 -1.9,0 L -1.9,0 Q -1.9,-0.787 -1.344,-1.344 Q -0.787,-1.9 0,-1.9 L 0,-1.9 Q 0.787,-1.9 1.344,-1.344 Q 1.9,-0.787 1.9,0 L 1.9,0" fill="#606661" stroke="#4C5950" stroke-width="0.069"/></g><g transform="translate(35.315 18.56)"><path d=" M 0,0"/><path d=" M 1.9,0 Q 1.9,0.787 1.344,1.344 Q 0.787,1.9 0,1.9 L 0,1.9 Q -0.787,1.9 -1.344,1.344 Q -1.9,0.787 -1.9,0 L -1.9,0 Q -1.9,-0.787 -1.344,-1.344 Q -0.787,-1.9 0,-1.9 L 0,-1.9 Q 0.787,-1.9 1.344,-1.344 Q 1.9,-0.787 1.9,0 L 1.9,0" fill="#606661" stroke="#4C5950" stroke-width="0.069"/></g><g transform="translate(22.584 29.914)"><path d=" M 0,0"/><path d=" M 1.9,0 Q 1.9,0.787 1.344,1.344 Q 0.787,1.9 0,1.9 L 0,1.9 Q -0.787,1.9 -1.344,1.344 Q -1.9,0.787 -1.9,0 L -1.9,0 Q -1.9,-0.787 -1.344,-1.344 Q -0.787,-1.9 0,-1.9 L 0,-1.9 Q 0.787,-1.9 1.344,-1.344 Q 1.9,-0.787 1.9,0 L 1.9,0" fill="#606661" stroke="#4C5950" stroke-width="0.069"/></g><g transform="translate(9.481 35.026)"><path d=" M 0,0"/><path d=" M 1.9,0 Q 1.9,0.787 1.344,1.344 Q 0.787,1.9 0,1.9 L 0,1.9 Q -0.787,1.9 -1.344,1.344 Q -1.9,0.787 -1.9,0 L -1.9,0 Q -1.9,-0.787 -1.344,-1.344 Q -0.787,-1.9 0,-1.9 L 0,-1.9 Q 0.787,-1.9 1.344,-1.344 Q 1.9,-0.787 1.9,0 L 1.9,0" fill="#606661" stroke="#4C5950" stroke-width="0.069"/></g><g transform="translate(-6.136 34.488)"><path d=" M 0,0"/><path d=" M 1.9,0 Q 1.9,0.787 1.344,1.344 Q 0.787,1.9 0,1.9 L 0,1.9 Q -0.787,1.9 -1.344,1.344 Q -1.9,0.787 -1.9,0 L -1.9,0 Q -1.9,-0.787 -1.344,-1.344 Q -0.787,-1.9 0,-1.9 L 0,-1.9 Q 0.787,-1.9 1.344,-1.344 Q 1.9,-0.787 1.9,0 L 1.9,0" fill="#606661" stroke="#4C5950" stroke-width="0.069"/></g><g transform="translate(-22.208 23.48) rotate(-136.776 0 0)"><path d=" M 0,0"/><path d=" M -0.987,-1.9 L -4.787,-1.9 L -4.787,1.9 L -0.987,1.9 L -0.987,-1.9 M 0.987,-1.9 L 4.787,-1.9 L 4.787,1.9 L 0.987,1.9 L 0.987,-1.9" fill="#606661" stroke="#4C5950" stroke-width="0.069"/></g><g transform="translate(-12.981 -26.83) rotate(-30.224 0 0)"><path d=" M 0,0"/><path d=" M -1,-1.9 L -4.8,-1.9 L -4.8,1.9 L -1,1.9 L -1,-1.9 M 1,-1.9 L 4.8,-1.9 L 4.8,1.9 L 1,1.9 L 1,-1.9" fill="#606661" stroke="#4C5950" stroke-width="0.069"/></g><g transform="translate(5.426 21.459)"><path d=" M 0,0"/><path d=" M 2.5,0 Q 2.5,1.036 1.768,1.768 Q 1.036,2.5 0,2.5 L 0,2.5 Q -1.036,2.5 -1.768,1.768 Q -2.5,1.036 -2.5,0 L -2.5,0 Q -2.5,-1.036 -1.768,-1.768 Q -1.036,-2.5 0,-2.5 L 0,-2.5 Q 1.036,-2.5 1.768,-1.768 Q 2.5,-1.036 2.5,0 L 2.5,0" fill="#606661" stroke="#4C5950" stroke-width="0.069"/></g><g transform="translate(-17.546 21.392)"><path d=" M 0,0"/><path d=" M 2.5,0 Q 2.5,1.036 1.768,1.768 Q 1.036,2.5 0,2.5 L 0,2.5 Q -1.036,2.5 -1.768,1.768 Q -2.5,1.036 -2.5,0 L -2.5,0 Q -2.5,-1.036 -1.768,-1.768 Q -1.036,-2.5 0,-2.5 L 0,-2.5 Q 1.036,-2.5 1.768,-1.768 Q 2.5,-1.036 2.5,0 L 2.5,0" fill="#606661" stroke="#4C5950" stroke-width="0.069"/></g><g transform="translate(-16.364 0.812)"><path d=" M 0,0"/><path d=" M 2.5,0 Q 2.5,1.036 1.768,1.768 Q 1.036,2.5 0,2.5 L 0,2.5 Q -1.036,2.5 -1.768,1.768 Q -2.5,1.036 -2.5,0 L -2.5,0 Q -2.5,-1.036 -1.768,-1.768 Q -1.036,-2.5 0,-2.5 L 0,-2.5 Q 1.036,-2.5 1.768,-1.768 Q 2.5,-1.036 2.5,0 L 2.5,0" fill="#606661" stroke="#4C5950" stroke-width="0.069"/></g><g transform="translate(2.303 7.013) rotate(48.302 0 0)"><path d=" M 0,0"/><path d=" M -0.855,-1.9 L -4.655,-1.9 L -4.655,1.9 L -0.855,1.9 L -0.855,-1.9 M 0.855,-1.9 L 4.655,-1.9 L 4.655,1.9 L 0.855,1.9 L 0.855,-1.9" fill="#606661" stroke="#4C5950" stroke-width="0.069"/></g></g></g><g><path d=" M 0,0"/></g><g><path d=" M 0,0"/><g stroke="#97A077" stroke-width="4.267"><path d=" M 0,0"/><g transform="translate(448.372 620.512) rotate(-13.052 0 0) scale(1.237 1.237)"><path d=" M 0,0"/><text dominant-baseline="text-before-edge" style="font: 27px &#039;IM Fell Great Primer&#039;, serif" fill="#2D3D4C" transform="translate(-9.255 -17)">T</text></g><g transform="translate(479.753 613.687) rotate(-8.14 0 0) scale(1.237 1.237)"><path d=" M 0,0"/><text dominant-baseline="text-before-edge" style="font: 27px &#039;IM Fell Great Primer&#039;, serif" fill="#2D3D4C" transform="translate(-11.681 -17)">H</text></g><g transform="translate(512.069 609.065) rotate(-8.14 0 0) scale(1.237 1.237)"><path d=" M 0,0"/><text dominant-baseline="text-before-edge" style="font: 27px &#039;IM Fell Great Primer&#039;, serif" fill="#2D3D4C" transform="translate(-9.67 -17)">E</text></g><g transform="translate(533.83 608.637) rotate(-0.137 0 0) scale(1.237 1.237)"><path d=" M 0,0"/><text dominant-baseline="text-before-edge" style="font: 27px &#039;IM Fell Great Primer&#039;, serif" fill="#2D3D4C" transform="translate(-2.907 -17)"> </text></g><g transform="translate(555.097 608.674) rotate(10.985 0 0) scale(1.237 1.237)"><path d=" M 0,0"/><text dominant-baseline="text-before-edge" style="font: 27px &#039;IM Fell Great Primer&#039;, serif" fill="#2D3D4C" transform="translate(-9.255 -17)">T</text></g><g transform="translate(584.693 614.418) rotate(10.985 0 0) scale(1.237 1.237)"><path d=" M 0,0"/><text dominant-baseline="text-before-edge" style="font: 27px &#039;IM Fell Great Primer&#039;, serif" fill="#2D3D4C" transform="translate(-10.29 -17)">O</text></g><g transform="translate(615.703 628.724) rotate(44.865 0 0) scale(1.237 1.237)"><path d=" M 0,0"/><text dominant-baseline="text-before-edge" style="font: 27px &#039;IM Fell Great Primer&#039;, serif" fill="#2D3D4C" transform="translate(-12.814 -17)">W</text></g><g transform="translate(639.823 652.753) rotate(44.956 0 0) scale(1.237 1.237)"><path d=" M 0,0"/><text dominant-baseline="text-before-edge" style="font: 27px &#039;IM Fell Great Primer&#039;, serif" fill="#2D3D4C" transform="translate(-9.67 -17)">E</text></g><g transform="translate(663.411 670.783) rotate(29.966 0 0) scale(1.237 1.237)"><path d=" M 0,0"/><text dominant-baseline="text-before-edge" style="font: 27px &#039;IM Fell Great Primer&#039;, serif" fill="#2D3D4C" transform="translate(-9.499 -17)">R</text></g></g><g><path d=" M 0,0"/><g transform="translate(448.372 620.512) rotate(-13.052 0 0) scale(1.237 1.237)"><path d=" M 0,0"/><text dominant-baseline="text-before-edge" style="font: 27px &#039;IM Fell Great Primer&#039;, serif" fill="#2D3D4C" transform="translate(-9.255 -17)">T</text></g><g transform="translate(479.753 613.687) rotate(-8.14 0 0) scale(1.237 1.237)"><path d=" M 0,0"/><text dominant-baseline="text-before-edge" style="font: 27px &#039;IM Fell Great Primer&#039;, serif" fill="#2D3D4C" transform="translate(-11.681 -17)">H</text></g><g transform="translate(512.069 609.065) rotate(-8.14 0 0) scale(1.237 1.237)"><path d=" M 0,0"/><text dominant-baseline="text-before-edge" style="font: 27px &#039;IM Fell Great Primer&#039;, serif" fill="#2D3D4C" transform="translate(-9.67 -17)">E</text></g><g transform="translate(533.83 608.637) rotate(-0.137 0 0) scale(1.237 1.237)"><path d=" M 0,0"/><text dominant-baseline="text-before-edge" style="font: 27px &#039;IM Fell Great Primer&#039;, serif" fill="#2D3D4C" transform="translate(-2.907 -17)"> </text></g><g transform="translate(555.097 608.674) rotate(10.985 0 0) scale(1.237 1.237)"><path d=" M 0,0"/><text dominant-baseline="text-before-edge" style="font: 27px &#039;IM Fell Great Primer&#039;, serif" fill="#2D3D4C" transform="translate(-9.255 -17)">T</text></g><g transform="translate(584.693 614.418) rotate(10.985 0 0) scale(1.237 1.237)"><path d=" M 0,0"/><text dominant-baseline="text-before-edge" style="font: 27px &#039;IM Fell Great Primer&#039;, serif" fill="#2D3D4C" transform="translate(-10.29 -17)">O</text></g><g transform="translate(615.703 628.724) rotate(44.865 0 0) scale(1.237 1.237)"><path d=" M 0,0"/><text dominant-baseline="text-before-edge" style="font: 27px &#039;IM Fell Great Primer&#039;, serif" fill="#2D3D4C" transform="translate(-12.814 -17)">W</text></g><g transform="translate(639.823 652.753) rotate(44.956 0 0) scale(1.237 1.237)"><path d=" M 0,0"/><text dominant-baseline="text-before-edge" style="font: 27px &#039;IM Fell Great Primer&#039;, serif" fill="#2D3D4C" transform="translate(-9.67 -17)">E</text></g><g transform="translate(663.411 670.783) rotate(29.966 0 0) scale(1.237 1.237)"><path d=" M 0,0"/><text dominant-baseline="text-before-edge" style="font: 27px &#039;IM Fell Great Primer&#039;, serif" fill="#2D3D4C" transform="translate(-9.499 -17)">R</text></g></g><g stroke="#97A077" stroke-width="4.267"><path d=" M 0,0"/><g transform="translate(373.366 717.727) rotate(57.573 0 0) scale(1.162 1.162)"><path d=" M 0,0"/><text dominant-baseline="text-before-edge" style="font: 27px &#039;IM Fell Great Primer&#039;, serif" fill="#2D3D4C" transform="translate(-9.202 -17)">C</text></g><g transform="translate(386.704 739.337) rotate(55.989 0 0) scale(1.162 1.162)"><path d=" M 0,0"/><text dominant-baseline="text-before-edge" style="font: 27px &#039;IM Fell Great Primer&#039;, serif" fill="#2D3D4C" transform="translate(-9.09 -17)">A</text></g><g transform="translate(401.323 757.955) rotate(47.915 0 0) scale(1.162 1.162)"><path d=" M 0,0"/><text dominant-baseline="text-before-edge" style="font: 27px &#039;IM Fell Great Primer&#039;, serif" fill="#2D3D4C" transform="translate(-7.765 -17)">S</text></g><g transform="translate(420.109 772.636) rotate(35.781 0 0) scale(1.162 1.162)"><path d=" M 0,0"/><text dominant-baseline="text-before-edge" style="font: 27px &#039;IM Fell Great Primer&#039;, serif" fill="#2D3D4C" transform="translate(-9.255 -17)">T</text></g><g transform="translate(443.71 784.635) rotate(25.167 0 0) scale(1.162 1.162)"><path d=" M 0,0"/><text dominant-baseline="text-before-edge" style="font: 27px &#039;IM Fell Great Primer&#039;, serif" fill="#2D3D4C" transform="translate(-9.973 -17)">L</text></g><g transform="translate(467.665 796.975) rotate(30.008 0 0) scale(1.162 1.162)"><path d=" M 0,0"/><text dominant-baseline="text-before-edge" style="font: 27px &#039;IM Fell Great Primer&#039;, serif" fill="#2D3D4C" transform="translate(-9.67 -17)">E</text></g></g><g><path d=" M 0,0"/><g transform="translate(373.366 717.727) rotate(57.573 0 0) scale(1.162 1.162)"><path d=" M 0,0"/><text dominant-baseline="text-before-edge" style="font: 27px &#039;IM Fell Great Primer&#039;, serif" fill="#2D3D4C" transform="translate(-9.202 -17)">C</text></g><g transform="translate(386.704 739.337) rotate(55.989 0 0) scale(1.162 1.162)"><path d=" M 0,0"/><text dominant-baseline="text-before-edge" style="font: 27px &#039;IM Fell Great Primer&#039;, serif" fill="#2D3D4C" transform="translate(-9.09 -17)">A</text></g><g transform="translate(401.323 757.955) rotate(47.915 0 0) scale(1.162 1.162)"><path d=" M 0,0"/><text dominant-baseline="text-before-edge" style="font: 27px &#039;IM Fell Great Primer&#039;, serif" fill="#2D3D4C" transform="translate(-7.765 -17)">S</text></g><g transform="translate(420.109 772.636) rotate(35.781 0 0) scale(1.162 1.162)"><path d=" M 0,0"/><text dominant-baseline="text-before-edge" style="font: 27px &#039;IM Fell Great Primer&#039;, serif" fill="#2D3D4C" transform="translate(-9.255 -17)">T</text></g><g transform="translate(443.71 784.635) rotate(25.167 0 0) scale(1.162 1.162)"><path d=" M 0,0"/><text dominant-baseline="text-before-edge" style="font: 27px &#039;IM Fell Great Primer&#039;, serif" fill="#2D3D4C" transform="translate(-9.973 -17)">L</text></g><g transform="translate(467.665 796.975) rotate(30.008 0 0) scale(1.162 1.162)"><path d=" M 0,0"/><text dominant-baseline="text-before-edge" style="font: 27px &#039;IM Fell Great Primer&#039;, serif" fill="#2D3D4C" transform="translate(-9.67 -17)">E</text></g></g><g stroke="#97A077" stroke-width="4.267"><path d=" M 0,0"/><g transform="translate(280.52 732.93) rotate(86.314 0 0) scale(1.276 1.276)"><path d=" M 0,0"/><text dominant-baseline="text-before-edge" style="font: 27px &#039;IM Fell Great Primer&#039;, serif" fill="#2D3D4C" transform="translate(-9.202 -17)">C</text></g><g transform="translate(281.49 763.427) rotate(101.021 0 0) scale(1.276 1.276)"><path d=" M 0,0"/><text dominant-baseline="text-before-edge" style="font: 27px &#039;IM Fell Great Primer&#039;, serif" fill="#2D3D4C" transform="translate(-9.499 -17)">R</text></g><g transform="translate(275.75 792.9) rotate(101.021 0 0) scale(1.276 1.276)"><path d=" M 0,0"/><text dominant-baseline="text-before-edge" style="font: 27px &#039;IM Fell Great Primer&#039;, serif" fill="#2D3D4C" transform="translate(-9.09 -17)">A</text></g><g transform="translate(272.188 822.376) rotate(95.529 0 0) scale(1.276 1.276)"><path d=" M 0,0"/><text dominant-baseline="text-before-edge" style="font: 27px &#039;IM Fell Great Primer&#039;, serif" fill="#2D3D4C" transform="translate(-9.255 -17)">T</text></g><g transform="translate(276.953 851.838) rotate(65.337 0 0) scale(1.276 1.276)"><path d=" M 0,0"/><text dominant-baseline="text-before-edge" style="font: 27px &#039;IM Fell Great Primer&#039;, serif" fill="#2D3D4C" transform="translate(-9.67 -17)">E</text></g><g transform="translate(294.61 875.709) rotate(26.264 0 0) scale(1.276 1.276)"><path d=" M 0,0"/><text dominant-baseline="text-before-edge" style="font: 27px &#039;IM Fell Great Primer&#039;, serif" fill="#2D3D4C" transform="translate(-9.499 -17)">R</text></g><g transform="translate(314.872 885.707) rotate(26.264 0 0) scale(1.276 1.276)"><path d=" M 0,0"/><text dominant-baseline="text-before-edge" style="font: 27px &#039;IM Fell Great Primer&#039;, serif" fill="#2D3D4C" transform="translate(-2.907 -17)"> </text></g><g transform="translate(337.471 886.408) rotate(-3.481 0 0) scale(1.276 1.276)"><path d=" M 0,0"/><text dominant-baseline="text-before-edge" style="font: 27px &#039;IM Fell Great Primer&#039;, serif" fill="#2D3D4C" transform="translate(-9.868 -17)">G</text></g><g transform="translate(367.767 883.294) rotate(-9.753 0 0) scale(1.276 1.276)"><path d=" M 0,0"/><text dominant-baseline="text-before-edge" style="font: 27px &#039;IM Fell Great Primer&#039;, serif" fill="#2D3D4C" transform="translate(-9.09 -17)">A</text></g><g transform="translate(397.057 878.322) rotate(2.991 0 0) scale(1.276 1.276)"><path d=" M 0,0"/><text dominant-baseline="text-before-edge" style="font: 27px &#039;IM Fell Great Primer&#039;, serif" fill="#2D3D4C" transform="translate(-9.255 -17)">T</text></g><g transform="translate(427.925 879.935) rotate(2.991 0 0) scale(1.276 1.276)"><path d=" M 0,0"/><text dominant-baseline="text-before-edge" style="font: 27px &#039;IM Fell Great Primer&#039;, serif" fill="#2D3D4C" transform="translate(-9.67 -17)">E</text></g></g><g><path d=" M 0,0"/><g transform="translate(280.52 732.93) rotate(86.314 0 0) scale(1.276 1.276)"><path d=" M 0,0"/><text dominant-baseline="text-before-edge" style="font: 27px &#039;IM Fell Great Primer&#039;, serif" fill="#2D3D4C" transform="translate(-9.202 -17)">C</text></g><g transform="translate(281.49 763.427) rotate(101.021 0 0) scale(1.276 1.276)"><path d=" M 0,0"/><text dominant-baseline="text-before-edge" style="font: 27px &#039;IM Fell Great Primer&#039;, serif" fill="#2D3D4C" transform="translate(-9.499 -17)">R</text></g><g transform="translate(275.75 792.9) rotate(101.021 0 0) scale(1.276 1.276)"><path d=" M 0,0"/><text dominant-baseline="text-before-edge" style="font: 27px &#039;IM Fell Great Primer&#039;, serif" fill="#2D3D4C" transform="translate(-9.09 -17)">A</text></g><g transform="translate(272.188 822.376) rotate(95.529 0 0) scale(1.276 1.276)"><path d=" M 0,0"/><text dominant-baseline="text-before-edge" style="font: 27px &#039;IM Fell Great Primer&#039;, serif" fill="#2D3D4C" transform="translate(-9.255 -17)">T</text></g><g transform="translate(276.953 851.838) rotate(65.337 0 0) scale(1.276 1.276)"><path d=" M 0,0"/><text dominant-baseline="text-before-edge" style="font: 27px &#039;IM Fell Great Primer&#039;, serif" fill="#2D3D4C" transform="translate(-9.67 -17)">E</text></g><g transform="translate(294.61 875.709) rotate(26.264 0 0) scale(1.276 1.276)"><path d=" M 0,0"/><text dominant-baseline="text-before-edge" style="font: 27px &#039;IM Fell Great Primer&#039;, serif" fill="#2D3D4C" transform="translate(-9.499 -17)">R</text></g><g transform="translate(314.872 885.707) rotate(26.264 0 0) scale(1.276 1.276)"><path d=" M 0,0"/><text dominant-baseline="text-before-edge" style="font: 27px &#039;IM Fell Great Primer&#039;, serif" fill="#2D3D4C" transform="translate(-2.907 -17)"> </text></g><g transform="translate(337.471 886.408) rotate(-3.481 0 0) scale(1.276 1.276)"><path d=" M 0,0"/><text dominant-baseline="text-before-edge" style="font: 27px &#039;IM Fell Great Primer&#039;, serif" fill="#2D3D4C" transform="translate(-9.868 -17)">G</text></g><g transform="translate(367.767 883.294) rotate(-9.753 0 0) scale(1.276 1.276)"><path d=" M 0,0"/><text dominant-baseline="text-before-edge" style="font: 27px &#039;IM Fell Great Primer&#039;, serif" fill="#2D3D4C" transform="translate(-9.09 -17)">A</text></g><g transform="translate(397.057 878.322) rotate(2.991 0 0) scale(1.276 1.276)"><path d=" M 0,0"/><text dominant-baseline="text-before-edge" style="font: 27px &#039;IM Fell Great Primer&#039;, serif" fill="#2D3D4C" transform="translate(-9.255 -17)">T</text></g><g transform="translate(427.925 879.935) rotate(2.991 0 0) scale(1.276 1.276)"><path d=" M 0,0"/><text dominant-baseline="text-before-edge" style="font: 27px &#039;IM Fell Great Primer&#039;, serif" fill="#2D3D4C" transform="translate(-9.67 -17)">E</text></g></g><g stroke="#97A077" stroke-width="4.267"><path d=" M 0,0"/><g transform="translate(270.076 364.373) rotate(10.203 0 0) scale(1.23 1.23)"><path d=" M 0,0"/><text dominant-baseline="text-before-edge" style="font: 27px &#039;IM Fell Great Primer&#039;, serif" fill="#2D3D4C" transform="translate(-9.255 -17)">T</text></g><g transform="translate(298.23 369.651) rotate(12.03 0 0) scale(1.23 1.23)"><path d=" M 0,0"/><text dominant-baseline="text-before-edge" style="font: 27px &#039;IM Fell Great Primer&#039;, serif" fill="#2D3D4C" transform="translate(-9.499 -17)">R</text></g><g transform="translate(326.049 375.58) rotate(12.03 0 0) scale(1.23 1.23)"><path d=" M 0,0"/><text dominant-baseline="text-before-edge" style="font: 27px &#039;IM Fell Great Primer&#039;, serif" fill="#2D3D4C" transform="translate(-9.09 -17)">A</text></g><g transform="translate(354.679 383.296) rotate(15.186 0 0) scale(1.23 1.23)"><path d=" M 0,0"/><text dominant-baseline="text-before-edge" style="font: 27px &#039;IM Fell Great Primer&#039;, serif" fill="#2D3D4C" transform="translate(-10.652 -17)">D</text></g><g transform="translate(383.441 392.986) rotate(19.673 0 0) scale(1.23 1.23)"><path d=" M 0,0"/><text dominant-baseline="text-before-edge" style="font: 27px &#039;IM Fell Great Primer&#039;, serif" fill="#2D3D4C" transform="translate(-9.67 -17)">E</text></g><g transform="translate(402.623 401.447) rotate(30.011 0 0) scale(1.23 1.23)"><path d=" M 0,0"/><text dominant-baseline="text-before-edge" style="font: 27px &#039;IM Fell Great Primer&#039;, serif" fill="#2D3D4C" transform="translate(-2.907 -17)"> </text></g><g transform="translate(421.059 412.096) rotate(30.011 0 0) scale(1.23 1.23)"><path d=" M 0,0"/><text dominant-baseline="text-before-edge" style="font: 27px &#039;IM Fell Great Primer&#039;, serif" fill="#2D3D4C" transform="translate(-9.868 -17)">G</text></g><g transform="translate(443.659 429.369) rotate(37.864 0 0) scale(1.23 1.23)"><path d=" M 0,0"/><text dominant-baseline="text-before-edge" style="font: 27px &#039;IM Fell Great Primer&#039;, serif" fill="#2D3D4C" transform="translate(-9.09 -17)">A</text></g><g transform="translate(466.342 445.267) rotate(34.436 0 0) scale(1.23 1.23)"><path d=" M 0,0"/><text dominant-baseline="text-before-edge" style="font: 27px &#039;IM Fell Great Primer&#039;, serif" fill="#2D3D4C" transform="translate(-9.255 -17)">T</text></g><g transform="translate(492.673 456.564) rotate(19.051 0 0) scale(1.23 1.23)"><path d=" M 0,0"/><text dominant-baseline="text-before-edge" style="font: 27px &#039;IM Fell Great Primer&#039;, serif" fill="#2D3D4C" transform="translate(-9.67 -17)">E</text></g></g><g><path d=" M 0,0"/><g transform="translate(270.076 364.373) rotate(10.203 0 0) scale(1.23 1.23)"><path d=" M 0,0"/><text dominant-baseline="text-before-edge" style="font: 27px &#039;IM Fell Great Primer&#039;, serif" fill="#2D3D4C" transform="translate(-9.255 -17)">T</text></g><g transform="translate(298.23 369.651) rotate(12.03 0 0) scale(1.23 1.23)"><path d=" M 0,0"/><text dominant-baseline="text-before-edge" style="font: 27px &#039;IM Fell Great Primer&#039;, serif" fill="#2D3D4C" transform="translate(-9.499 -17)">R</text></g><g transform="translate(326.049 375.58) rotate(12.03 0 0) scale(1.23 1.23)"><path d=" M 0,0"/><text dominant-baseline="text-before-edge" style="font: 27px &#039;IM Fell Great Primer&#039;, serif" fill="#2D3D4C" transform="translate(-9.09 -17)">A</text></g><g transform="translate(354.679 383.296) rotate(15.186 0 0) scale(1.23 1.23)"><path d=" M 0,0"/><text dominant-baseline="text-before-edge" style="font: 27px &#039;IM Fell Great Primer&#039;, serif" fill="#2D3D4C" transform="translate(-10.652 -17)">D</text></g><g transform="translate(383.441 392.986) rotate(19.673 0 0) scale(1.23 1.23)"><path d=" M 0,0"/><text dominant-baseline="text-before-edge" style="font: 27px &#039;IM Fell Great Primer&#039;, serif" fill="#2D3D4C" transform="translate(-9.67 -17)">E</text></g><g transform="translate(402.623 401.447) rotate(30.011 0 0) scale(1.23 1.23)"><path d=" M 0,0"/><text dominant-baseline="text-before-edge" style="font: 27px &#039;IM Fell Great Primer&#039;, serif" fill="#2D3D4C" transform="translate(-2.907 -17)"> </text></g><g transform="translate(421.059 412.096) rotate(30.011 0 0) scale(1.23 1.23)"><path d=" M 0,0"/><text dominant-baseline="text-before-edge" style="font: 27px &#039;IM Fell Great Primer&#039;, serif" fill="#2D3D4C" transform="translate(-9.868 -17)">G</text></g><g transform="translate(443.659 429.369) rotate(37.864 0 0) scale(1.23 1.23)"><path d=" M 0,0"/><text dominant-baseline="text-before-edge" style="font: 27px &#039;IM Fell Great Primer&#039;, serif" fill="#2D3D4C" transform="translate(-9.09 -17)">A</text></g><g transform="translate(466.342 445.267) rotate(34.436 0 0) scale(1.23 1.23)"><path d=" M 0,0"/><text dominant-baseline="text-before-edge" style="font: 27px &#039;IM Fell Great Primer&#039;, serif" fill="#2D3D4C" transform="translate(-9.255 -17)">T</text></g><g transform="translate(492.673 456.564) rotate(19.051 0 0) scale(1.23 1.23)"><path d=" M 0,0"/><text dominant-baseline="text-before-edge" style="font: 27px &#039;IM Fell Great Primer&#039;, serif" fill="#2D3D4C" transform="translate(-9.67 -17)">E</text></g></g></g><g><path d=" M 0,0"/><g transform="translate(456.624 45.5)" stroke="#97A077" stroke-width="4.267"><path d=" M 0,0"/><text dominant-baseline="text-before-edge" style="font: 54px &#039;IM Fell Great Primer&#039;, serif" fill="#4C5950" transform="translate(-188.71 -33.5)">Draig Ddur Keep</text></g><g transform="translate(456.624 45.5)"><path d=" M 0,0"/><text dominant-baseline="text-before-edge" style="font: 54px &#039;IM Fell Great Primer&#039;, serif" fill="#4C5950" transform="translate(-188.71 -33.5)">Draig Ddur Keep</text></g></g></g></svg>